<svg width="200" height="202" viewBox="0 0 200 202" fill="none" xmlns="http://www.w3.org/2000/svg">
<g clip-path="url(#clip0_1231_156058)">
<path d="M50.451 193.349C50.2303 193.359 50.0118 193.301 49.8251 193.183C49.6385 193.065 49.4927 192.892 49.4075 192.688C49.3222 192.485 49.3017 192.259 49.3487 192.044C49.3957 191.828 49.5079 191.632 49.6701 191.482C49.6973 191.374 49.7168 191.296 49.7439 191.188C49.5327 190.652 49.1661 190.19 48.6911 189.864C48.2161 189.537 47.6543 189.359 47.0777 189.354C46.5012 189.348 45.9362 189.515 45.4551 189.833C44.974 190.151 44.5987 190.605 44.3774 191.137C43.1005 194.126 41.4479 197.221 42.2698 200.513C36.8409 189.007 38.6871 174.695 46.7102 164.855C48.9279 163.633 50.7254 161.463 51.1933 158.943C50.0958 159.315 48.7273 158.422 49.5526 157.266C49.9103 156.824 50.2714 156.386 50.6291 155.944C46.4599 151.504 41.4923 158.482 46.0814 164.475C44.5802 166.357 43.2799 168.391 42.2016 170.543C42.4506 168.258 42.1534 165.946 41.3345 163.797C40.5045 161.795 38.9487 160.108 37.5788 158.378C35.913 156.268 32.4848 157.241 32.2606 159.918C33.7979 160.423 33.9976 162.644 32.2392 162.948C32.6997 167.927 35.9527 172.503 40.4329 174.686C38.7784 179.329 38.1323 184.27 38.5378 189.182C37.747 183.442 31.5853 182.049 27.2786 179.767C27.0044 179.591 26.6851 179.499 26.3595 179.502C26.0339 179.504 25.716 179.602 25.4448 179.782C25.1735 179.962 24.9606 180.217 24.8319 180.516C24.7032 180.815 24.6643 181.146 24.7201 181.466C25.3145 181.708 25.8834 182.008 26.4185 182.362C26.6692 182.531 26.8617 182.773 26.9695 183.055C27.0773 183.337 27.0951 183.646 27.0206 183.939C26.9461 184.232 26.7829 184.494 26.5533 184.691C26.3237 184.887 26.0389 185.008 25.7381 185.036C27.909 190.409 33.5216 194.017 39.286 193.996C39.84 196.403 40.6426 198.747 41.681 200.988H50.2366C50.2673 200.893 50.2948 200.795 50.3224 200.7C49.5305 200.749 48.7355 200.702 47.9551 200.559C50.0503 198.078 51.6706 196.812 50.4512 193.349L50.451 193.349Z" fill="#F2F2F2"/>
<path d="M126.725 193.349C126.945 193.359 127.164 193.301 127.351 193.183C127.537 193.065 127.683 192.892 127.768 192.688C127.854 192.485 127.874 192.259 127.827 192.044C127.78 191.828 127.668 191.632 127.506 191.482C127.478 191.374 127.459 191.296 127.432 191.188C127.643 190.652 128.01 190.19 128.485 189.864C128.96 189.537 129.521 189.359 130.098 189.354C130.675 189.348 131.24 189.515 131.721 189.833C132.202 190.151 132.577 190.605 132.798 191.137C134.075 194.126 135.728 197.221 134.906 200.513C140.335 189.007 138.489 174.695 130.466 164.855C128.248 163.633 126.45 161.463 125.982 158.943C127.08 159.315 128.448 158.422 127.623 157.266C127.265 156.824 126.904 156.386 126.547 155.944C130.716 151.504 135.683 158.482 131.094 164.475C132.596 166.357 133.896 168.391 134.974 170.543C134.725 168.258 135.022 165.946 135.841 163.797C136.671 161.795 138.227 160.108 139.597 158.378C141.263 156.268 144.691 157.241 144.915 159.918C143.378 160.423 143.178 162.644 144.937 162.948C144.476 167.927 141.223 172.503 136.743 174.686C138.397 179.329 139.043 184.27 138.638 189.182C139.429 183.442 145.59 182.049 149.897 179.767C150.171 179.591 150.491 179.499 150.816 179.502C151.142 179.504 151.46 179.602 151.731 179.782C152.002 179.962 152.215 180.217 152.344 180.516C152.473 180.815 152.511 181.146 152.456 181.466C151.861 181.708 151.292 182.008 150.757 182.362C150.507 182.531 150.314 182.773 150.206 183.055C150.098 183.337 150.081 183.646 150.155 183.939C150.23 184.232 150.393 184.494 150.623 184.691C150.852 184.887 151.137 185.008 151.438 185.036C149.267 190.409 143.654 194.017 137.89 193.996C137.336 196.403 136.533 198.747 135.495 200.988H126.939C126.908 200.893 126.881 200.795 126.853 200.7C127.645 200.749 128.44 200.702 129.221 200.559C127.125 198.078 125.505 196.812 126.725 193.349Z" fill="#F2F2F2"/>
<path d="M129.898 194.618L126.214 195.456L121.227 181.643L126.665 180.406L129.898 194.618Z" fill="#FFB7B7"/>
<path d="M130.903 198.434L119.573 201.012L119.54 200.869C119.274 199.699 119.484 198.472 120.123 197.457C120.761 196.441 121.777 195.721 122.947 195.455L124.66 193.414L128.878 194.106L129.867 193.881L130.903 198.434Z" fill="#232323"/>
<path d="M189.335 127.293L191.36 130.483L180.021 139.814L177.031 135.106L189.335 127.293Z" fill="#FFB7B7"/>
<path d="M192.591 125.066L198.82 134.876L198.696 134.954C197.683 135.597 196.457 135.812 195.286 135.551C194.115 135.289 193.096 134.574 192.453 133.561L189.956 132.633L189.192 128.426L188.648 127.57L192.591 125.066Z" fill="#232323"/>
<path d="M71.8866 93.1888L70.9766 87.9141L84.8118 81.6667L87.7996 76.3767C87.7031 75.9125 87.7368 75.4307 87.897 74.9844C88.0572 74.5382 88.3376 74.1449 88.7072 73.848C89.0769 73.5511 89.5214 73.3621 89.9917 73.302C90.462 73.2419 90.9397 73.3129 91.3722 73.5073C91.8046 73.7016 92.175 74.0117 92.4422 74.4033C92.7095 74.795 92.8633 75.2528 92.8867 75.7264C92.9101 76.1999 92.8022 76.6707 92.5748 77.0867C92.3474 77.5028 92.0095 77.8479 91.5983 78.0839L86.6833 85.6828L71.8866 93.1888Z" fill="#A0616A"/>
<path d="M67.6797 88.8779L73.9101 85.6953L75.5594 91.8881L71.2317 95.0961L67.6797 88.8779Z" fill="#EC770E"/>
<path d="M53.7001 194.14L57.4672 194.14L59.2593 179.609L53.6992 179.61L53.7001 194.14Z" fill="#A0616A"/>
<path d="M58.72 194.48V191.926L57.7297 191.986L53.6982 192.225L52.7652 192.282L52.0519 200.836L52.0137 201.294H54.6886L54.7745 200.839L55.163 198.769L56.1661 200.839L56.3859 201.294H63.4775C63.8995 201.292 64.3034 201.123 64.6015 200.824C64.8996 200.525 65.0679 200.121 65.0697 199.699C65.369 198.301 59.4715 195.279 58.72 194.48Z" fill="#232323"/>
<path d="M8.98169 136.473L8.10352 140.136L21.8158 145.267L23.1117 139.86L8.98169 136.473Z" fill="#A0616A"/>
<path d="M7.77984 141.278L10.2633 141.874L10.4354 140.897L11.1431 136.921L11.3049 136L3.15371 133.312L2.7167 133.168L2.09302 135.769L2.51579 135.959L4.43802 136.819L2.19133 137.312L1.69728 137.42L0.0437895 144.316C-0.0520067 144.727 0.0181929 145.159 0.239158 145.519C0.460124 145.878 0.814006 146.136 1.22396 146.236C2.51359 146.853 6.82736 141.823 7.77984 141.278Z" fill="#232323"/>
<path d="M59.5237 100.099L54.6748 97.832L45.005 109.534L39.115 111.024C38.6926 110.808 38.2189 110.714 37.7462 110.751C37.2736 110.788 36.8203 110.955 36.4366 111.234C36.0528 111.512 35.7535 111.891 35.5717 112.329C35.3898 112.767 35.3326 113.246 35.4062 113.715C35.4798 114.183 35.6815 114.622 35.9889 114.983C36.2963 115.344 36.6975 115.613 37.1482 115.76C37.5989 115.907 38.0815 115.927 38.5427 115.817C39.004 115.708 39.4259 115.472 39.7618 115.138L48.3866 112.397L59.5237 100.099Z" fill="#A0616A"/>
<path d="M128.269 56.7803C127.241 56.7803 126.236 56.4755 125.382 55.9045C124.527 55.3334 123.861 54.5218 123.468 53.5722C123.075 52.6226 122.972 51.5777 123.172 50.5697C123.373 49.5616 123.868 48.6356 124.594 47.9088C125.321 47.182 126.247 46.6871 127.255 46.4866C128.263 46.2861 129.308 46.389 130.258 46.7823C131.207 47.1756 132.019 47.8417 132.59 48.6963C133.161 49.5509 133.466 50.5557 133.466 51.5835C133.464 52.9613 132.916 54.2822 131.942 55.2565C130.968 56.2307 129.647 56.7788 128.269 56.7803ZM128.269 46.9831C127.359 46.9831 126.47 47.2529 125.713 47.7584C124.957 48.2639 124.367 48.9824 124.019 49.823C123.671 50.6636 123.58 51.5886 123.757 52.481C123.935 53.3734 124.373 54.1931 125.016 54.8365C125.659 55.4799 126.479 55.918 127.372 56.0955C128.264 56.273 129.189 56.1819 130.03 55.8337C130.87 55.4855 131.589 54.8959 132.094 54.1393C132.6 53.3828 132.869 52.4934 132.869 51.5835C132.868 50.3638 132.383 49.1945 131.52 48.3321C130.658 47.4696 129.489 46.9845 128.269 46.9831Z" fill="#E6E6E6"/>
<path d="M127.903 53.5419C127.893 53.5419 127.882 53.5416 127.872 53.5411C127.78 53.5366 127.689 53.5123 127.608 53.4697C127.526 53.4271 127.454 53.3673 127.397 53.2944L126.578 52.2419C126.527 52.1755 126.489 52.0995 126.466 52.0183C126.444 51.9372 126.438 51.8524 126.448 51.7689C126.459 51.6854 126.486 51.6047 126.527 51.5315C126.569 51.4584 126.624 51.3941 126.691 51.3424L126.72 51.3195C126.787 51.2678 126.863 51.2296 126.944 51.2073C127.025 51.1849 127.11 51.1788 127.193 51.1893C127.277 51.1997 127.358 51.2265 127.431 51.2681C127.504 51.3098 127.568 51.3654 127.62 51.4319C127.661 51.485 127.714 51.5285 127.773 51.5595C127.833 51.5906 127.899 51.6083 127.966 51.6116C128.033 51.6148 128.1 51.6036 128.163 51.5785C128.225 51.5535 128.282 51.5152 128.328 51.4664L129.99 49.7116C130.107 49.5884 130.268 49.5166 130.438 49.512C130.608 49.5073 130.773 49.5703 130.896 49.687L130.923 49.713C130.985 49.7708 131.034 49.8402 131.068 49.9171C131.102 49.9939 131.121 50.0768 131.123 50.1609C131.126 50.2451 131.111 50.3289 131.081 50.4075C131.051 50.4861 131.006 50.558 130.948 50.6191L128.368 53.3417C128.309 53.405 128.236 53.4553 128.156 53.4898C128.077 53.5242 127.99 53.5419 127.903 53.5419Z" fill="#E6E6E6"/>
<path d="M102.326 119.698C101.298 119.698 100.293 119.393 99.4385 118.822C98.5839 118.251 97.9178 117.44 97.5245 116.49C97.1311 115.541 97.0282 114.496 97.2288 113.488C97.4293 112.48 97.9242 111.554 98.651 110.827C99.3778 110.1 100.304 109.605 101.312 109.405C102.32 109.204 103.365 109.307 104.314 109.7C105.264 110.094 106.076 110.76 106.647 111.614C107.218 112.469 107.522 113.474 107.522 114.501C107.521 115.879 106.973 117.2 105.999 118.174C105.024 119.149 103.703 119.697 102.326 119.698ZM102.326 109.901C101.416 109.901 100.526 110.171 99.7698 110.676C99.0133 111.182 98.4237 111.9 98.0755 112.741C97.7273 113.582 97.6362 114.507 97.8137 115.399C97.9912 116.291 98.4293 117.111 99.0727 117.754C99.7161 118.398 100.536 118.836 101.428 119.013C102.321 119.191 103.246 119.1 104.086 118.752C104.927 118.403 105.645 117.814 106.151 117.057C106.656 116.301 106.926 115.411 106.926 114.501C106.925 113.282 106.44 112.112 105.577 111.25C104.715 110.388 103.545 109.902 102.326 109.901Z" fill="#E6E6E6"/>
<path d="M101.96 116.46C101.95 116.46 101.939 116.46 101.929 116.459C101.836 116.455 101.746 116.43 101.664 116.388C101.582 116.345 101.51 116.285 101.454 116.212L100.635 115.16C100.583 115.093 100.545 115.017 100.523 114.936C100.501 114.855 100.495 114.77 100.505 114.687C100.515 114.603 100.542 114.523 100.584 114.449C100.625 114.376 100.681 114.312 100.747 114.26L100.777 114.237C100.843 114.186 100.919 114.148 101 114.125C101.082 114.103 101.166 114.097 101.25 114.107C101.334 114.118 101.414 114.144 101.487 114.186C101.561 114.228 101.625 114.283 101.677 114.35C101.718 114.403 101.77 114.447 101.83 114.478C101.89 114.509 101.955 114.526 102.023 114.53C102.09 114.533 102.157 114.522 102.219 114.496C102.282 114.471 102.338 114.433 102.384 114.384L104.047 112.63C104.164 112.506 104.325 112.435 104.495 112.43C104.664 112.425 104.829 112.488 104.953 112.605L104.98 112.631C105.041 112.689 105.09 112.758 105.125 112.835C105.159 112.912 105.178 112.995 105.18 113.079C105.182 113.163 105.168 113.247 105.138 113.325C105.108 113.404 105.062 113.476 105.004 113.537L102.425 116.26C102.365 116.323 102.293 116.373 102.213 116.408C102.133 116.442 102.047 116.46 101.96 116.46Z" fill="#E6E6E6"/>
<path d="M45.3726 49.624C44.3447 49.624 43.34 49.3193 42.4854 48.7482C41.6308 48.1772 40.9647 47.3656 40.5714 46.416C40.178 45.4664 40.0751 44.4215 40.2756 43.4134C40.4762 42.4053 40.9711 41.4794 41.6979 40.7526C42.4247 40.0258 43.3506 39.5308 44.3587 39.3303C45.3668 39.1298 46.4117 39.2327 47.3613 39.6261C48.3109 40.0194 49.1225 40.6855 49.6935 41.5401C50.2646 42.3947 50.5694 43.3994 50.5694 44.4273C50.5678 45.8051 50.0198 47.126 49.0455 48.1002C48.0713 49.0745 46.7504 49.6225 45.3726 49.624ZM45.3726 39.8269C44.4627 39.8269 43.5733 40.0967 42.8167 40.6022C42.0602 41.1077 41.4705 41.8261 41.1224 42.6668C40.7742 43.5074 40.6831 44.4324 40.8606 45.3248C41.0381 46.2171 41.4762 47.0369 42.1196 47.6802C42.763 48.3236 43.5827 48.7618 44.4751 48.9393C45.3675 49.1168 46.2925 49.0257 47.1331 48.6775C47.9737 48.3293 48.6922 47.7396 49.1977 46.9831C49.7032 46.2266 49.973 45.3371 49.973 44.4273C49.9716 43.2076 49.4865 42.0383 48.624 41.1758C47.7616 40.3134 46.5922 39.8282 45.3726 39.8269Z" fill="#E6E6E6"/>
<path d="M45.0049 46.3857C44.9944 46.3857 44.984 46.3853 44.9735 46.3848C44.8813 46.3804 44.7911 46.356 44.7091 46.3134C44.6271 46.2708 44.5554 46.211 44.4987 46.1381L43.68 45.0856C43.6283 45.0192 43.5902 44.9432 43.5679 44.8621C43.5456 44.7809 43.5394 44.6962 43.5499 44.6126C43.5603 44.5291 43.5871 44.4484 43.6287 44.3753C43.6703 44.3021 43.7259 44.2378 43.7924 44.1862L43.8218 44.1632C43.8883 44.1115 43.9642 44.0734 44.0454 44.051C44.1266 44.0287 44.2114 44.0226 44.2949 44.033C44.3785 44.0435 44.4592 44.0703 44.5323 44.1119C44.6055 44.1535 44.6698 44.2092 44.7215 44.2757C44.7628 44.3288 44.8151 44.3723 44.8749 44.4033C44.9346 44.4343 45.0003 44.452 45.0675 44.4553C45.1347 44.4586 45.2019 44.4473 45.2643 44.4223C45.3268 44.3972 45.3831 44.359 45.4294 44.3101L47.0915 42.5554C47.2085 42.4321 47.3697 42.3603 47.5395 42.3557C47.7094 42.3511 47.8742 42.414 47.9977 42.5307L48.025 42.5567C48.0861 42.6146 48.1352 42.6839 48.1695 42.7608C48.2038 42.8377 48.2226 42.9205 48.2249 43.0047C48.2272 43.0888 48.2129 43.1726 48.1827 43.2512C48.1526 43.3298 48.1073 43.4017 48.0494 43.4628L45.47 46.1855C45.4101 46.2487 45.338 46.2991 45.258 46.3335C45.1781 46.3679 45.0919 46.3857 45.0049 46.3857Z" fill="#E6E6E6"/>
<path d="M86.9777 139.021C74.927 139.021 61.0777 125.649 48.8246 132.002C11.7252 151.24 16.8322 119.049 6.17383 107.077L6.52374 106.375C18.284 116.92 32.9671 125.5 48.9857 131.186C63.4615 136.325 78.0458 138.706 91.1567 138.078L91.1795 138.921C89.7949 138.988 88.3943 139.021 86.9777 139.021Z" fill="#F2F2F2"/>
<path d="M70.4467 48.607C71.8378 48.607 72.9656 47.0948 72.9656 45.2293C72.9656 43.3638 71.8378 41.8516 70.4467 41.8516C69.0555 41.8516 67.9277 43.3638 67.9277 45.2293C67.9277 47.0948 69.0555 48.607 70.4467 48.607Z" fill="#E6E6E6"/>
<path d="M99.5407 101.301C98.3891 102.068 97.2104 100.242 98.3842 99.5088C99.5357 98.7415 100.714 100.568 99.5407 101.301Z" fill="#E6E6E6"/>
<path d="M92.9129 39.818C94.7245 39.818 96.193 38.3495 96.193 36.5379C96.193 34.7264 94.7245 33.2578 92.9129 33.2578C91.1014 33.2578 89.6328 34.7264 89.6328 36.5379C89.6328 38.3495 91.1014 39.818 92.9129 39.818Z" fill="#671E1E"/>
<path opacity="0.3" d="M104.384 54.5119L123.049 0L102.554 53.8593C102.453 53.9872 102.383 54.1373 102.352 54.2974C102.32 54.4574 102.327 54.6227 102.372 54.7795C102.417 54.9364 102.498 55.0802 102.61 55.1992C102.722 55.3182 102.86 55.4088 103.014 55.4636C103.167 55.5184 103.332 55.5357 103.494 55.5142C103.655 55.4927 103.81 55.433 103.944 55.3399C104.078 55.2469 104.187 55.1232 104.264 54.9792C104.341 54.8352 104.382 54.675 104.384 54.5119Z" fill="#F0F0F0"/>
<path d="M85.5448 120.922C87.3074 120.922 88.7362 119.493 88.7362 117.73C88.7362 115.968 87.3074 114.539 85.5448 114.539C83.7823 114.539 82.3535 115.968 82.3535 117.73C82.3535 119.493 83.7823 120.922 85.5448 120.922Z" fill="#F2F2F2"/>
<path d="M54.6356 118.949C54.6356 118.949 46.6797 124.13 48.7834 127.572C48.856 127.691 39.2802 140.338 39.2802 140.338L21.2033 139.191L20.5664 145.241L36.6597 149.902C36.6597 149.902 40.5968 152.794 43.6382 149.607C46.6797 146.421 56.8105 136.661 56.8105 136.661L57.2992 156.365L52.2136 183.668L59.807 183.187L67.1978 155.795L69.9258 124.767L54.6356 118.949Z" fill="#232323"/>
<path d="M60.3038 87.8574L56.9582 90.3928L53.1449 98.5315L56.8117 103.512C56.8117 103.512 59.8961 108.857 54.9591 114.034C50.022 119.211 46.2308 124.74 50.1825 124.542C54.1341 124.345 70.1388 132.485 70.2442 125.816C70.3495 119.147 70.5626 114.034 70.5626 114.034L74.7587 103.391C74.7587 103.391 77.2586 97.0422 75.5034 95.1417C73.7482 93.2412 71.3982 90.8127 71.3982 90.8127L67.1245 86.5391H63.2656L60.3038 87.8574Z" fill="#EC770E"/>
<path d="M66.5493 72.2208C74.0549 76.4918 67.8931 87.7607 60.2476 83.7479C52.7423 79.4771 58.904 68.2081 66.5493 72.2208Z" fill="#A0616A"/>
<path d="M70.5611 74.5871C70.0352 75.2711 68.9364 74.9504 66.7847 75.4385C66.7894 74.7092 66.7052 73.982 66.5338 73.273C66.3737 74.1508 66.0229 74.9827 65.506 75.7101C63.6377 75.9173 65.9281 81.5933 64.9714 85.7664C63.7388 76.9624 61.1464 79.269 62.4561 81.0152C63.2945 82.1332 62.7355 85.487 60.2202 83.8101C56.07 85.7825 50.1588 75.9845 56.7102 71.3895C56.5931 68.9057 59.3568 68.5133 61.0586 69.277C65.1888 66.2003 69.9074 70.1426 70.5611 74.5871Z" fill="#232323"/>
<path d="M51.3044 68.1624C49.6334 78.4364 40.6769 66.2729 36.4656 76.3836C35.1415 80.0451 37.4133 82.6644 38.8503 85.7036C39.1783 88.2012 35.929 89.4684 35.5887 91.7675C35.4939 97.0384 43.9976 96.7159 46.3749 93.3904C48.8175 89.9092 45.9007 85.2386 47.3689 81.502C49.4324 76.3143 57.8245 76.2757 58.5556 70.2402C57.1397 68.2239 53.3324 65.9146 51.3044 68.1624Z" fill="#232323"/>
<path d="M58.073 69.1671C58.0183 69.1901 57.9636 69.2131 57.9147 69.239H57.9118C57.8658 69.262 57.8198 69.285 57.7738 69.3109C57.768 69.3138 57.7651 69.3167 57.7594 69.3196C57.6989 69.262 57.6385 69.2045 57.5752 69.1469C57.5589 69.2407 57.5628 69.3368 57.5867 69.4289L57.5954 69.4634C57.6529 69.5238 57.7133 69.5814 57.7766 69.6418C57.8342 69.5987 57.8889 69.5526 57.9464 69.5095C57.9809 69.4807 58.0154 69.4519 58.0529 69.4231C58.0586 69.3483 58.0672 69.262 58.0759 69.1671L58.073 69.1671ZM59.805 65.9676C58.5218 65.6742 58.1075 67.3516 57.9838 68.1601C57.5177 65.2253 55.5785 66.1489 56.2488 68.1514C56.4625 68.7443 56.7988 69.2855 57.2357 69.7396C57.2961 69.8087 57.3623 69.8777 57.4314 69.9468C57.3537 70.3496 57.745 70.246 58.2744 69.8749C58.6653 69.5968 59.0268 69.2797 59.3533 68.9283C60.4092 67.8206 61.2321 66.3388 59.805 65.9676ZM59.8453 67.6192C59.4494 68.1297 59.0052 68.6008 58.5189 69.0261C58.3664 69.1642 58.2111 69.2965 58.0529 69.4231C58.05 69.449 58.05 69.472 58.0471 69.4922C58.036 69.5201 58.0225 69.5471 58.0068 69.5727C57.8457 69.8633 57.6644 69.7051 57.5954 69.4634C57.5896 69.4548 57.581 69.4461 57.5752 69.4375C57.3453 69.2 57.1453 68.9353 56.9796 68.6492C55.7914 66.5891 57.7047 65.1879 57.6098 69.0347C57.5923 69.07 57.5806 69.1079 57.5752 69.1469C57.5589 69.2407 57.5628 69.3368 57.5867 69.4289L57.5954 69.4634C57.6529 69.5238 57.7133 69.5814 57.7766 69.6418C57.8342 69.5987 57.8889 69.5526 57.9464 69.5095C57.9809 69.4807 58.0154 69.4519 58.0529 69.4231C58.0586 69.3483 58.0672 69.262 58.0759 69.1671V69.1642C58.1507 68.3931 58.355 67.0063 58.7319 66.6294C59.5605 65.9935 60.6337 66.6812 59.8453 67.6192ZM58.073 69.1671C58.0183 69.1901 57.9636 69.2131 57.9147 69.239H57.9118C57.8658 69.262 57.8198 69.285 57.7738 69.3109C57.768 69.3138 57.7651 69.3167 57.7594 69.3196C57.6989 69.262 57.6385 69.2045 57.5752 69.1469C57.5589 69.2407 57.5628 69.3368 57.5867 69.4289L57.5954 69.4634C57.6529 69.5238 57.7133 69.5814 57.7766 69.6418C57.8342 69.5987 57.8889 69.5526 57.9464 69.5095C57.9809 69.4807 58.0154 69.4519 58.0529 69.4231C58.0586 69.3483 58.0672 69.262 58.0759 69.1671L58.073 69.1671Z" fill="#232323"/>
<path d="M127.446 125.811L124.674 133.041L111.67 158.691L123.096 188.53L128.993 186.973L124.133 158.691L138.077 141.748L154.637 152.98C154.637 152.98 161.982 158.713 164.776 153.278C167.57 147.842 185.649 136.281 185.649 136.281L181.176 131.51L160.357 141.253L145.988 121.027L127.446 125.811Z" fill="#232323"/>
<path d="M141.433 91.7138L136.87 86.8112L129.042 85.7344L119.451 92.4487L119.548 99.8805L124.289 117.393C124.289 117.393 122.483 129.975 127.527 129.849C132.572 129.722 135.321 127.208 137.375 127.72C139.43 128.231 148.163 130.41 148.717 128.128C149.27 125.846 152.212 127.48 152.083 125.321C151.954 123.162 144.119 107.601 144.119 107.601L146.067 92.0375L141.433 91.7138Z" fill="#EC770E"/>
<path d="M170.325 69.1451C170.366 69.5517 170.317 69.9623 170.182 70.3479C170.047 70.7336 169.829 71.085 169.543 71.3773C169.258 71.6696 168.912 71.8958 168.529 72.0399C168.147 72.184 167.738 72.2425 167.33 72.2113L156.837 92.1682L154.02 87.8433L164.745 69.0084C164.843 68.3274 165.187 67.706 165.713 67.2618C166.238 66.8177 166.908 66.5816 167.596 66.5985C168.284 66.6154 168.941 66.8839 169.444 67.3533C169.947 67.8226 170.26 68.4602 170.325 69.1451Z" fill="#FFB7B7"/>
<path d="M137.29 95.4251C137.29 95.4251 136.874 98.9749 140.87 99.8538C144.866 100.733 155.938 94.4061 157.753 93.4398C158.322 93.1372 159.093 91.6541 159.884 89.7595C160.24 88.9089 160.599 87.9753 160.946 87.0284C161.146 86.4805 162.107 86.3309 162.297 85.7875C162.485 85.2471 161.901 84.3127 162.071 83.8033C162.88 81.3857 163.453 79.4676 163.453 79.4676L160.804 74.4922C157.099 76.4506 155.199 80.7645 153.802 85.7344L137.29 95.4251Z" fill="#EC770E"/>
<path d="M90.6176 73.7287C90.6798 74.1325 90.8299 74.5178 91.0571 74.8574C91.2843 75.197 91.5833 75.4827 91.9328 75.6943C92.2824 75.9059 92.6741 76.0382 93.0804 76.082C93.4866 76.1259 93.8975 76.0801 94.2842 75.9479L109.438 92.6436L111.083 87.7513L95.9854 72.2C95.7203 71.5651 95.2315 71.0496 94.6117 70.7511C93.9919 70.4525 93.2842 70.3917 92.6225 70.5801C91.9609 70.7686 91.3913 71.1932 91.0218 71.7735C90.6523 72.3538 90.5085 73.0494 90.6176 73.7287Z" fill="#FFB7B7"/>
<path d="M129.177 90.9017C129.177 90.9017 130.469 94.2344 126.819 96.0854C123.17 97.9364 110.867 94.5821 108.868 94.1008C108.242 93.9501 107.124 92.7072 105.884 91.0709C105.327 90.3363 104.746 89.5224 104.173 88.6924C103.841 88.2121 102.873 88.3078 102.554 87.829C102.237 87.3528 102.568 86.3021 102.276 85.8516C100.888 83.7132 99.8535 81.9995 99.8535 81.9995L101.173 76.5195C105.25 77.4886 108.169 81.1897 110.765 85.6517L129.177 90.9017Z" fill="#EC770E"/>
<path d="M133.112 84.4851C137.225 84.4851 140.559 81.1507 140.559 77.0375C140.559 72.9243 137.225 69.5898 133.112 69.5898C128.998 69.5898 125.664 72.9243 125.664 77.0375C125.664 81.1507 128.998 84.4851 133.112 84.4851Z" fill="#FFB7B7"/>
<path d="M141.614 72.775C140.831 71.563 139.361 70.7552 137.936 70.9822C137.803 70.0727 137.423 69.217 136.838 68.5083C136.253 67.7996 135.484 67.265 134.616 66.9628C133.748 66.6607 132.814 66.6024 131.915 66.7945C131.016 66.9865 130.187 67.4215 129.518 68.0521C129.298 67.8972 129.042 67.8018 128.774 67.775C128.507 67.7482 128.237 67.791 127.991 67.8992C127.5 68.1222 127.073 68.4648 126.749 68.8954C125.932 69.9153 125.406 71.1378 125.228 72.4328C125.049 73.7278 125.226 75.047 125.738 76.2497C125.564 75.6165 126.198 75.0208 126.839 74.8787C127.481 74.7366 128.153 74.8711 128.803 74.7785C129.637 74.66 130.386 74.1766 131.22 74.0678C131.928 74.0217 132.638 74.113 133.311 74.3364C133.984 74.5599 134.693 74.6551 135.401 74.6171C136.104 74.5337 137.008 77.1958 136.996 79.0708C136.994 79.4262 137.067 79.8824 137.414 79.9578C137.842 80.0506 138.09 79.4604 138.497 79.2996C138.685 79.2458 138.886 79.267 139.058 79.3586C139.23 79.4502 139.36 79.6052 139.421 79.7907C139.472 79.9794 139.477 80.1776 139.437 80.3688C139.396 80.5601 139.31 80.7388 139.186 80.8901C138.936 81.1902 138.639 81.4478 138.307 81.6531L138.474 81.7926C138.633 81.9607 138.846 82.0683 139.076 82.0968C139.306 82.1254 139.538 82.0731 139.733 81.949C140.118 81.6887 140.429 81.3343 140.638 80.9196C141.423 79.7047 141.985 78.3589 142.296 76.946C142.558 75.527 142.398 73.987 141.614 72.775Z" fill="#232323"/>
<path d="M196.711 102.146C187.104 109.422 167.99 107.124 162.059 119.587C144.099 157.321 128.735 128.576 113.01 125.468L112.865 124.697C128.607 126.003 145.492 123.977 161.694 118.838C176.337 114.195 189.4 107.288 199.473 98.8711L200 99.5299C198.937 100.419 197.84 101.291 196.711 102.146Z" fill="#F2F2F2"/>
<path d="M156.095 200.981C155.866 201.658 25.2371 201.658 24.9902 200.982C25.2187 200.303 155.848 200.303 156.095 200.981Z" fill="#CCCCCC"/>
</g>
<defs>
<clipPath id="clip0_1231_156058">
<rect width="200" height="201.488" fill="white"/>
</clipPath>
</defs>
</svg>
