<svg width="70" height="80" viewBox="0 0 70 80" fill="none" xmlns="http://www.w3.org/2000/svg">
<g clip-path="url(#clip0_1546_11239)">
<path d="M67.0784 29.4859H2.86511C2.29295 29.4852 1.74442 29.2576 1.33985 28.8531C0.935271 28.4485 0.707692 27.9 0.707031 27.3278V2.15808C0.707692 1.58592 0.935271 1.03739 1.33985 0.632815C1.74442 0.22824 2.29295 0.000660655 2.86511 0H67.0784C67.6505 0.000660655 68.1991 0.22824 68.6036 0.632815C69.0082 1.03739 69.2358 1.58592 69.2365 2.15808V27.3278C69.2358 27.9 69.0082 28.4485 68.6036 28.8531C68.1991 29.2576 67.6505 29.4852 67.0784 29.4859Z" fill="#F2F2F2"/>
<path d="M52.1007 28.1095H13.0563C10.1467 28.1062 7.35728 26.9489 5.29993 24.8916C3.24258 22.8342 2.08531 20.0448 2.08203 17.1353V12.3518C2.08531 9.44226 3.24257 6.65282 5.29992 4.59545C7.35728 2.53808 10.1467 1.3808 13.0563 1.3775H56.8841C59.7937 1.3808 62.5831 2.53808 64.6405 4.59545C66.6978 6.65282 67.8551 9.44226 67.8584 12.3518C67.8536 16.5295 66.1919 20.5348 63.2378 23.489C60.2837 26.4431 56.2784 28.1048 52.1007 28.1095Z" fill="white"/>
<path d="M42.0295 8.58274H16.2206C16.073 8.58274 15.9315 8.5241 15.8271 8.41973C15.7227 8.31535 15.6641 8.17378 15.6641 8.02617C15.6641 7.87856 15.7227 7.737 15.8271 7.63262C15.9315 7.52824 16.073 7.4696 16.2206 7.4696H42.0295C42.1771 7.4696 42.3186 7.52824 42.423 7.63262C42.5274 7.737 42.586 7.87856 42.586 8.02617C42.586 8.17378 42.5274 8.31535 42.423 8.41973C42.3186 8.5241 42.1771 8.58274 42.0295 8.58274Z" fill="#E6E6E6"/>
<path d="M55.0944 14.521H16.2206C16.073 14.521 15.9315 14.4623 15.8271 14.358C15.7227 14.2536 15.6641 14.112 15.6641 13.9644C15.6641 13.8168 15.7227 13.6752 15.8271 13.5709C15.9315 13.4665 16.073 13.4078 16.2206 13.4078H55.0944C55.242 13.4078 55.3835 13.4665 55.4879 13.5709C55.5923 13.6752 55.6509 13.8168 55.6509 13.9644C55.6509 14.112 55.5923 14.2536 55.4879 14.358C55.3835 14.4623 55.242 14.521 55.0944 14.521Z" fill="#E6E6E6"/>
<path d="M55.0944 20.4592H16.2206C16.073 20.4592 15.9315 20.4006 15.8271 20.2962C15.7227 20.1918 15.6641 20.0502 15.6641 19.9026C15.6641 19.755 15.7227 19.6135 15.8271 19.5091C15.9315 19.4047 16.073 19.3461 16.2206 19.3461H55.0944C55.242 19.3461 55.3835 19.4047 55.4879 19.5091C55.5923 19.6135 55.6509 19.755 55.6509 19.9026C55.6509 20.0502 55.5923 20.1918 55.4879 20.2962C55.3835 20.4006 55.242 20.4592 55.0944 20.4592Z" fill="#E6E6E6"/>
<path d="M55.0944 20.4592H16.2206C16.073 20.4592 15.9315 20.4006 15.8271 20.2962C15.7227 20.1918 15.6641 20.0502 15.6641 19.9026C15.6641 19.755 15.7227 19.6135 15.8271 19.5091C15.9315 19.4047 16.073 19.3461 16.2206 19.3461H55.0944C55.242 19.3461 55.3835 19.4047 55.4879 19.5091C55.5923 19.6135 55.6509 19.755 55.6509 19.9026C55.6509 20.0502 55.5923 20.1918 55.4879 20.2962C55.3835 20.4006 55.242 20.4592 55.0944 20.4592Z" fill="#E6E6E6"/>
<path d="M39.3058 15.2025C39.3119 15.3702 39.3548 15.5344 39.4313 15.6837C39.5079 15.833 39.6162 15.9637 39.7487 16.0666C39.8812 16.1695 40.0347 16.2421 40.1983 16.2792C40.3619 16.3164 40.5316 16.3173 40.6956 16.2817L42.8181 19.7638L43.7215 17.8468L41.5674 14.8341C41.4894 14.5626 41.3146 14.3292 41.076 14.178C40.8374 14.0268 40.5517 13.9684 40.2729 14.0138C39.9942 14.0592 39.7417 14.2053 39.5635 14.4244C39.3852 14.6435 39.2935 14.9204 39.3058 15.2025Z" fill="#FFB6B6"/>
<path d="M55.234 25.1818L47.9193 21.2142L45.6121 19.0496C45.6121 19.0496 44.6091 18.781 44.9783 18.4549C45.3474 18.1288 44.2954 17.8143 44.2954 17.8143L43.0568 16.6522L41.2969 17.8975L41.8062 18.6871C41.8062 18.6871 41.7712 19.9942 42.4872 19.7427C43.2033 19.4912 43.0243 20.5753 43.0243 20.5753L47.2983 27.2005L55.234 25.1818Z" fill="#EC770E"/>
<path d="M33.6447 21.4437C37.5906 21.4437 40.7894 18.2449 40.7894 14.299C40.7894 10.3531 37.5906 7.15436 33.6447 7.15436C29.6988 7.15436 26.5 10.3531 26.5 14.299C26.5 18.2449 29.6988 21.4437 33.6447 21.4437Z" fill="#671E1E"/>
<path d="M55.259 77.2222H53.7734L53.0664 71.4922H55.259V77.2222Z" fill="#FFB6B6"/>
<path d="M56.0432 79.7961H54.9778L54.7877 78.7903L54.3006 79.7961H51.475C51.3396 79.7961 51.2077 79.7528 51.0986 79.6726C50.9895 79.5923 50.9089 79.4793 50.8686 79.35C50.8283 79.2207 50.8304 79.0819 50.8746 78.9538C50.9187 78.8258 51.0027 78.7152 51.1141 78.6383L53.3706 77.0799V76.063L55.7439 76.2047L56.0432 79.7961Z" fill="#2F2E41"/>
<path d="M43.3761 77.2222H41.8905L41.1836 71.4922H43.3761V77.2222Z" fill="#FFB6B6"/>
<path d="M44.1604 79.7961H43.095L42.9049 78.7903L42.4178 79.7961H39.5922C39.4568 79.7961 39.3249 79.7528 39.2158 79.6726C39.1067 79.5923 39.0261 79.4793 38.9858 79.35C38.9455 79.2207 38.9476 79.0819 38.9918 78.9538C39.0359 78.8258 39.1199 78.7152 39.2313 78.6383L41.4877 77.0799V76.063L43.8611 76.2047L44.1604 79.7961Z" fill="#2F2E41"/>
<path d="M53.6817 33.8865H46.1836V42.4227H53.6817V33.8865Z" fill="#FFB6B6"/>
<path d="M46.3583 38.0969L45.0894 39.5965L42.8976 44.2107L37.375 57.3508L36.207 60.1297L37.1502 65.0423C37.1502 65.0423 37.3029 68.5032 37.3029 69.0697C37.3029 70.2233 38.2677 70.8625 38.2677 70.8625L38.9755 74.5491L45.8392 74.2607C45.8392 74.2607 45.5997 70.197 44.1621 69.1719C42.7246 68.1469 42.0638 62.8047 42.0638 62.8047L41.2826 60.4345L48.8961 51.4095L48.9452 54.5642L48.969 56.0912C48.969 56.0912 47.8541 66.0225 49.1537 67.9498C50.4534 69.8772 49.1802 69.6505 49.1802 69.6505L49.2421 73.6263L57.3747 73.6839L55.5805 62.2375C55.5805 62.2375 54.6695 61.5182 55.1569 60.7951C55.6443 60.072 54.6845 59.1865 54.6845 59.1865L55.115 50.2506C55.115 50.2506 54.6383 48.7071 55.199 48.5065C55.7597 48.3058 55.2726 46.9785 55.2726 46.9785L55.3559 45.2489L53.6833 39.8849L46.3583 38.0969Z" fill="#2F2E41"/>
<path d="M53.7955 33.8864L54.6029 31.464L55.1797 30.6565L55.4104 28.3494C55.4104 22.1202 54.021 23.1575 54.021 23.1575L53.2187 20.9667L49.5273 20.8513L47.1626 23.1007L45.2015 23.7929L44.4336 27.783L45.836 32.0408L46.182 34.3478C45.5219 35.5665 45.5777 34.9901 46.1244 35.9051L52.6419 37.6931C54.949 38.5006 54.949 36.4242 54.4864 35.9051C54.0238 35.386 53.7955 33.8864 53.7955 33.8864Z" fill="#EC770E"/>
<path d="M50.8986 20.0769C52.7885 20.0769 54.3206 18.5449 54.3206 16.6549C54.3206 14.765 52.7885 13.2329 50.8986 13.2329C49.0087 13.2329 47.4766 14.765 47.4766 16.6549C47.4766 18.5449 49.0087 20.0769 50.8986 20.0769Z" fill="#FFB6B6"/>
<path d="M55.4648 21.2228C55.4971 21.2772 55.5166 21.3381 55.522 21.4012C55.5274 21.4642 55.5186 21.5276 55.496 21.5867C55.4735 21.6458 55.438 21.699 55.392 21.7425C55.3461 21.7859 55.2909 21.8184 55.2307 21.8376C54.7716 21.9899 54.4889 22.434 54.159 22.7893C53.8303 23.1434 53.3008 23.4376 52.8809 23.1965C52.4622 22.9566 52.4333 22.344 52.0826 22.0118C51.7412 21.6888 51.1736 21.728 50.7722 21.9737L50.7602 21.9811C50.6909 22.0263 50.6099 22.0502 50.5272 22.0498C50.4445 22.0494 50.3637 22.0248 50.2948 21.979C50.2259 21.9332 50.172 21.8682 50.1396 21.7921C50.1073 21.7159 50.098 21.632 50.1128 21.5506C50.2535 20.8026 50.3941 20.0546 50.5346 19.3067C50.1654 20.1962 49.6293 21.0067 48.9554 21.6946C48.7697 21.9088 48.5345 22.0743 48.2702 22.1768C48.0302 22.2529 47.7972 22.0049 47.5642 22.0499C48.1433 21.5435 50.0905 18.2974 49.7421 16.1275C49.3326 16.1737 48.9231 16.2198 48.5136 16.266C48.4692 16.0722 48.3745 15.8935 48.239 15.748C48.2556 15.9366 48.2316 16.1266 48.1686 16.3052C47.9979 16.3248 47.826 16.3433 47.6553 16.3629C47.4177 16.3894 47.1593 16.4125 46.9551 16.2879C46.6148 16.0802 46.6044 15.5888 46.7013 15.2012C46.9851 14.0742 47.8456 13.1318 48.8988 12.6381C49.952 12.1455 50.2635 13.2425 51.3732 12.8918C53.5649 12.1997 55.2445 13.3833 55.8363 15.5796C56.3335 17.4218 55.9724 19.3771 55.4648 21.2228Z" fill="#2F2E41"/>
<path d="M64.9402 79.8706H60.75L60.732 79.8379C60.6784 79.7408 60.6267 79.6378 60.5783 79.532C60.1467 78.608 59.9643 77.5511 59.8033 76.6187L59.6821 75.9159C59.6674 75.8308 59.6785 75.7432 59.7138 75.6644C59.7492 75.5856 59.8073 75.5192 59.8807 75.4736C59.954 75.428 60.0393 75.4053 60.1256 75.4085C60.212 75.4117 60.2954 75.4405 60.3652 75.4914C61.002 75.9547 61.639 76.4177 62.2763 76.8801C62.5176 77.0557 62.7932 77.2589 63.0571 77.4785C63.0826 77.3548 63.1092 77.2308 63.1359 77.1085C63.1542 77.024 63.1974 76.947 63.2598 76.8872C63.3222 76.8274 63.401 76.7876 63.4862 76.7729C63.5714 76.7581 63.659 76.7692 63.7379 76.8045C63.8167 76.8399 63.8832 76.898 63.9289 76.9714L64.4192 77.759C64.7767 78.3342 65.0923 78.9011 65.028 79.5124C65.0283 79.5198 65.0278 79.5273 65.0264 79.5346C65.0135 79.635 64.9896 79.7337 64.9552 79.8289L64.9402 79.8706Z" fill="#F0F0F0"/>
<path d="M69.1471 79.9612L29.3293 80C29.2895 79.9998 29.2515 79.9839 29.2235 79.9557C29.1954 79.9275 29.1797 79.8894 29.1797 79.8497C29.1797 79.8099 29.1954 79.7718 29.2235 79.7436C29.2515 79.7154 29.2895 79.6995 29.3293 79.6993L69.1471 79.6605C69.1868 79.6607 69.2248 79.6766 69.2529 79.7048C69.2809 79.733 69.2966 79.7711 69.2966 79.8109C69.2966 79.8506 69.2809 79.8887 69.2529 79.9169C69.2248 79.9451 69.1868 79.961 69.1471 79.9612Z" fill="#CACACA"/>
<path d="M32.9935 23.9153L28.6137 20.2166C28.464 20.0899 28.3707 19.9089 28.3542 19.7135C28.3377 19.5181 28.3994 19.3241 28.5258 19.1741L29.3319 18.2195C29.4586 18.0698 29.6396 17.9765 29.835 17.96C30.0304 17.9435 30.2244 18.0053 30.3744 18.1316L34.7542 21.8304C34.9039 21.9571 34.9972 22.138 35.0137 22.3334C35.0302 22.5289 34.9685 22.7229 34.8421 22.8728L34.036 23.8274C33.9093 23.9771 33.7283 24.0704 33.5329 24.0869C33.3375 24.1034 33.1435 24.0417 32.9935 23.9153Z" fill="#3F3D56"/>
<path d="M28.8439 19.251C28.7758 19.3318 28.7425 19.4364 28.7514 19.5417C28.7603 19.647 28.8106 19.7445 28.8913 19.8128L33.271 23.5115C33.3519 23.5796 33.4564 23.6129 33.5617 23.604C33.667 23.5951 33.7645 23.5448 33.8328 23.4641L34.6389 22.5096C34.707 22.4288 34.7403 22.3242 34.7314 22.2189C34.7225 22.1136 34.6722 22.0161 34.5916 21.9478L30.2118 18.2491C30.131 18.181 30.0264 18.1477 29.9211 18.1566C29.8158 18.1655 29.7183 18.2158 29.65 18.2965L28.8439 19.251Z" fill="white"/>
<path d="M31.4154 20.6889C31.4002 20.7101 31.3803 20.7276 31.3572 20.7398C31.3341 20.752 31.3084 20.7587 31.2823 20.7593L30.5941 20.7751C30.572 20.7756 30.55 20.7717 30.5294 20.7637C30.5088 20.7557 30.49 20.7438 30.474 20.7285C30.458 20.7132 30.4451 20.6949 30.4362 20.6747C30.4273 20.6545 30.4224 20.6327 30.4219 20.6106C30.4214 20.5885 30.4253 20.5665 30.4333 20.5459C30.4412 20.5252 30.4532 20.5064 30.4685 20.4904C30.4838 20.4744 30.502 20.4616 30.5223 20.4527C30.5425 20.4437 30.5643 20.4389 30.5864 20.4384L31.0366 20.428L30.5932 19.2581C30.5775 19.2164 30.579 19.1702 30.5974 19.1295C30.6158 19.0889 30.6495 19.0572 30.6912 19.0414C30.7329 19.0256 30.7791 19.027 30.8198 19.0452C30.8605 19.0635 30.8923 19.0971 30.9082 19.1388L31.4359 20.5312C31.4454 20.5564 31.4488 20.5835 31.4457 20.6103C31.4426 20.637 31.4331 20.6627 31.4181 20.685L31.4154 20.6889Z" fill="#6C63FF"/>
<path d="M31.5046 20.9829C31.6706 21.0073 31.8292 21.0677 31.9693 21.1601C32.1094 21.2524 32.2275 21.3743 32.3154 21.5172C32.4032 21.6601 32.4587 21.8205 32.4779 21.9872C32.497 22.1539 32.4794 22.3227 32.4262 22.4818L35.6568 24.9704L33.6531 25.6599L30.8924 23.191C30.631 23.084 30.418 22.8849 30.2936 22.6313C30.1693 22.3777 30.1423 22.0873 30.2177 21.8151C30.2932 21.5429 30.4659 21.3078 30.703 21.1545C30.9402 21.0011 31.2254 20.94 31.5046 20.9829Z" fill="#FFB6B6"/>
<path d="M48.3239 22.2133L40.0526 27.2989C40.0526 27.2989 36.7177 26.065 37.3694 25.4937C38.0212 24.9225 35.9463 24.5363 35.9463 24.5363L33.6543 22.9943L32.3242 24.54C32.3242 24.54 32.5666 27.0508 32.9789 26.616C33.3913 26.1813 34.0076 27.3689 34.0076 27.3689C34.0076 27.3689 34.1898 28.695 35.3636 28.3613C36.5374 28.0276 39.6871 31.5255 39.6871 31.5255L49.8666 27.7289L48.3239 22.2133Z" fill="#EC770E"/>
<path d="M33.3903 17.165C33.2944 17.165 33.1998 17.1427 33.1141 17.0998C33.0283 17.0569 32.9537 16.9947 32.8962 16.9179L31.3813 14.898C31.3327 14.8332 31.2973 14.7593 31.2771 14.6807C31.257 14.6022 31.2525 14.5204 31.264 14.4401C31.2755 14.3598 31.3027 14.2826 31.344 14.2128C31.3853 14.143 31.44 14.082 31.5049 14.0333C31.6359 13.935 31.8007 13.8928 31.9628 13.916C32.0431 13.9275 32.1204 13.9547 32.1902 13.996C32.26 14.0373 32.3209 14.092 32.3696 14.1569L33.3607 15.4782L35.9062 11.6601C35.9971 11.5238 36.1384 11.4291 36.299 11.397C36.4596 11.3649 36.6265 11.3979 36.7628 11.4888C36.8991 11.5796 36.9937 11.7209 37.0258 11.8816C37.0579 12.0422 37.0249 12.209 36.9341 12.3453L33.9043 16.89C33.8495 16.9722 33.7758 17.04 33.6893 17.0879C33.6029 17.1357 33.5062 17.1621 33.4075 17.1649C33.4018 17.165 33.396 17.165 33.3903 17.165Z" fill="white"/>
</g>
<defs>
<clipPath id="clip0_1546_11239">
<rect width="68.5882" height="80" fill="white" transform="translate(0.707031)"/>
</clipPath>
</defs>
</svg>
