<svg width="90" height="81" viewBox="0 0 90 81" fill="none" xmlns="http://www.w3.org/2000/svg">
<g clipath="url(#clip0_85_3503)">
<path d="M88.7781 31.0936C88.7462 31.0936 88.715 31.0839 88.6888 31.0656L45.4491 0.952175C45.3175 0.860961 45.1611 0.812215 45.001 0.812488C44.8409 0.812761 44.6847 0.86204 44.5534 0.953702L1.62508 31.0653C1.59113 31.0891 1.54911 31.0985 1.50826 31.0913C1.46741 31.0841 1.43108 31.061 1.40726 31.0271C1.38344 30.9931 1.37409 30.9511 1.38126 30.9102C1.38843 30.8694 1.41153 30.8331 1.44549 30.8092L44.3739 0.69765C44.5577 0.569342 44.7763 0.50037 45.0005 0.500001C45.2246 0.499633 45.4435 0.567885 45.6278 0.695588L88.8676 30.8089C88.8949 30.828 88.9154 30.8552 88.9262 30.8867C88.9369 30.9182 88.9373 30.9524 88.9273 30.9841C88.9174 31.0159 88.8975 31.0436 88.8707 31.0633C88.8438 31.083 88.8114 31.0936 88.7781 31.0936Z" fill="#232323"/>
<path d="M4.07812 32.161L45.0435 1.80066L86.3197 34.3213L47.1542 57.5392L25.8907 52.6924L4.07812 32.161Z" fill="#E6E6E6"/>
<path d="M27.6856 71.8799H7.44769C7.32343 71.8801 7.20035 71.8557 7.08549 71.8083C6.97064 71.7608 6.86626 71.6912 6.77834 71.6034C6.69041 71.5156 6.62066 71.4113 6.57307 71.2965C6.52548 71.1817 6.50098 71.0587 6.50098 70.9344C6.50098 70.8101 6.52548 70.6871 6.57307 70.5723C6.62066 70.4575 6.69041 70.3532 6.77834 70.2654C6.86626 70.1776 6.97064 70.108 7.08549 70.0605C7.20035 70.0131 7.32343 69.9887 7.44769 69.9889H27.6856C27.8099 69.9887 27.9329 70.0131 28.0478 70.0605C28.1627 70.108 28.267 70.1776 28.355 70.2654C28.4429 70.3532 28.5126 70.4575 28.5602 70.5723C28.6078 70.6871 28.6323 70.8101 28.6323 70.9344C28.6323 71.0587 28.6078 71.1817 28.5602 71.2965C28.5126 71.4113 28.4429 71.5156 28.355 71.6034C28.267 71.6912 28.1627 71.7608 28.0478 71.8083C27.9329 71.8557 27.8099 71.8801 27.6856 71.8799Z" fill="#671E1E"/>
<path d="M14.7086 67.8148H7.44769C7.32343 67.815 7.20035 67.7907 7.08549 67.7432C6.97064 67.6958 6.86626 67.6261 6.77834 67.5383C6.69041 67.4505 6.62066 67.3462 6.57307 67.2314C6.52548 67.1166 6.50098 66.9936 6.50098 66.8693C6.50098 66.7451 6.52548 66.622 6.57307 66.5072C6.62066 66.3924 6.69041 66.2881 6.77834 66.2003C6.86626 66.1125 6.97064 66.0429 7.08549 65.9954C7.20035 65.948 7.32343 65.9237 7.44769 65.9238H14.7086C14.8329 65.9237 14.956 65.948 15.0708 65.9954C15.1857 66.0429 15.29 66.1125 15.378 66.2003C15.4659 66.2881 15.5356 66.3924 15.5832 66.5072C15.6308 66.622 15.6553 66.7451 15.6553 66.8693C15.6553 66.9936 15.6308 67.1166 15.5832 67.2314C15.5356 67.3462 15.4659 67.4505 15.378 67.5383C15.29 67.6261 15.1857 67.6958 15.0708 67.7432C14.956 67.7907 14.8329 67.815 14.7086 67.8148Z" fill="#671E1E"/>
<path d="M45.6194 49.0714C45.4656 49.0716 45.3132 49.0417 45.1709 48.9835L19.9062 38.5005V5.68685C19.9066 5.39669 20.022 5.11851 20.2272 4.91334C20.4323 4.70816 20.7105 4.59275 21.0007 4.59241H69.469C69.7591 4.59275 70.0373 4.70816 70.2425 4.91334C70.4477 5.11851 70.5631 5.39669 70.5634 5.68685V38.5234L70.5159 38.5437L46.0816 48.9784C45.9353 49.0399 45.7782 49.0715 45.6194 49.0714Z" fill="white"/>
<path d="M45.6195 49.1495C45.4555 49.1497 45.293 49.1179 45.1411 49.0559L19.8281 38.5527V5.68684C19.8285 5.37595 19.9521 5.0779 20.172 4.85806C20.3918 4.63823 20.6899 4.51457 21.0007 4.51422H69.469C69.7799 4.51457 70.078 4.63823 70.2978 4.85806C70.5176 5.0779 70.6413 5.37595 70.6416 5.68684V38.575L46.1124 49.0503C45.9563 49.1159 45.7888 49.1496 45.6195 49.1495ZM20.1408 38.3438L45.2604 48.7668C45.4947 48.8619 45.7571 48.8603 45.9902 48.7624L70.3289 38.3686V5.68684C70.3287 5.45886 70.238 5.24029 70.0768 5.07908C69.9156 4.91788 69.697 4.82719 69.469 4.82692H21.0007C20.7728 4.82719 20.5542 4.91788 20.393 5.07908C20.2318 5.24029 20.1411 5.45886 20.1408 5.68684L20.1408 38.3438Z" fill="#232323"/>
<path d="M88.4651 30.7809H88.4338L70.4849 38.4452L45.9272 48.9315C45.8312 48.9719 45.7282 48.993 45.6241 48.9935C45.52 48.994 45.4168 48.974 45.3205 48.9347L19.9841 38.4233L1.59427 30.7935L1.56618 30.7809H1.53487C1.24471 30.7813 0.966518 30.8967 0.76134 31.1019C0.556161 31.307 0.440752 31.5852 0.44043 31.8754V79.4056C0.440752 79.6957 0.556161 79.9739 0.76134 80.1791C0.966518 80.3843 1.24471 80.4997 1.53487 80.5H88.4651C88.7552 80.4997 89.0334 80.3843 89.2386 80.1791C89.4438 79.9739 89.5592 79.6957 89.5595 79.4056V31.8754C89.5592 31.5852 89.4438 31.307 89.2386 31.1019C89.0334 30.8967 88.7552 30.7813 88.4651 30.7809ZM89.2468 79.4056C89.2467 79.6129 89.1644 79.8117 89.0178 79.9583C88.8712 80.1049 88.6724 80.1872 88.4651 80.1873H1.53487C1.32757 80.1872 1.12878 80.1049 0.982189 79.9583C0.835601 79.8117 0.753211 79.6129 0.753128 79.4056V31.8754C0.753412 31.6732 0.831828 31.479 0.971983 31.3333C1.11214 31.1876 1.30318 31.1018 1.50518 31.0936L19.9841 38.761L45.2001 49.2239C45.4731 49.335 45.779 49.3333 46.0507 49.2192L70.4849 38.7845L88.4964 31.0936C88.698 31.1024 88.8886 31.1885 89.0283 31.3341C89.1681 31.4797 89.2464 31.6736 89.2468 31.8754V79.4056Z" fill="#232323"/>
<path d="M45.3662 39.7667C44.4335 39.7684 43.5256 39.4668 42.7793 38.9073L42.733 38.8726L32.9907 31.4136C32.5396 31.0679 32.1609 30.6367 31.8763 30.1446C31.5918 29.6526 31.4069 29.1093 31.3324 28.5458C31.2578 27.9824 31.2949 27.4097 31.4416 26.8606C31.5883 26.3114 31.8418 25.7966 32.1875 25.3454C32.5332 24.8942 32.9644 24.5155 33.4564 24.231C33.9485 23.9464 34.4917 23.7616 35.0552 23.687C35.6187 23.6124 36.1913 23.6495 36.7405 23.7963C37.2896 23.943 37.8045 24.1964 38.2557 24.5421L44.566 29.3808L59.4782 9.93302C59.8241 9.48195 60.2554 9.10342 60.7475 8.81904C61.2397 8.53467 61.783 8.35001 62.3465 8.27563C62.91 8.20124 63.4827 8.23858 64.0318 8.38551C64.5808 8.53244 65.0956 8.78609 65.5467 9.13196L65.4539 9.25785L65.5491 9.13379C66.4589 9.83307 67.0542 10.8647 67.2044 12.0024C67.3546 13.14 67.0474 14.2908 66.3501 15.2023L48.8097 38.0775C48.404 38.6046 47.8824 39.0312 47.2852 39.3241C46.688 39.6171 46.0314 39.7685 45.3662 39.7667Z" fill="#671E1E"/>
</g>
<defs>
<clipPath id="clip0_85_3503">
<rect width="89.1191" height="80" fill="white" transform="translate(0.44043 0.5)"/>
</clipPath>
</defs>
</svg>
