<svg width="103" height="100" viewBox="0 0 103 100" fill="none" xmlns="http://www.w3.org/2000/svg">
<g clip-path="url(#clip0_1039_10233)">
<path d="M65.3338 22.4896H37.6882C37.0582 22.4904 36.4543 22.7406 36.0088 23.1854C35.5633 23.6303 35.3127 24.2333 35.312 24.8624V86.2142L34.9951 86.3107L28.2132 88.3845C27.8918 88.4823 27.5447 88.4489 27.248 88.2914C26.9512 88.1339 26.7292 87.8653 26.6307 87.5445L6.45764 21.7477C6.35947 21.4268 6.39293 21.0801 6.55067 20.7838C6.70841 20.4874 6.97752 20.2658 7.29885 20.1675L17.7497 16.9722L48.0472 7.71205L58.498 4.51673C58.6571 4.46785 58.8242 4.45077 58.9899 4.46647C59.1555 4.48216 59.3165 4.53032 59.4635 4.60819C59.6105 4.68606 59.7407 4.79212 59.8466 4.92028C59.9525 5.04844 60.032 5.1962 60.0807 5.3551L65.2372 22.1733L65.3338 22.4896Z" fill="#F2F2F2"/>
<path d="M71.3678 22.1734L65.1531 1.90362C65.0497 1.56589 64.8807 1.25181 64.6556 0.979333C64.4306 0.706856 64.1541 0.481323 63.8417 0.315618C63.5294 0.149913 63.1874 0.0472837 62.8354 0.0135986C62.4833 -0.0200866 62.128 0.0158324 61.7899 0.119299L47.0966 4.61015L16.8007 13.8718L2.10741 18.3643C1.42484 18.5736 0.853312 19.0447 0.51828 19.6743C0.183247 20.304 0.112082 21.0406 0.320407 21.7225L21.5611 90.9962C21.7304 91.5467 22.0718 92.0285 22.5354 92.371C22.9991 92.7135 23.5604 92.8986 24.1371 92.8992C24.404 92.8993 24.6694 92.8593 24.9244 92.7805L34.9966 89.7023L35.3134 89.6042V89.2736L34.9966 89.3701L24.8309 92.4784C24.2284 92.6618 23.5777 92.5991 23.0214 92.304C22.4652 92.0089 22.0488 91.5056 21.8637 90.9045L0.624635 21.6292C0.532925 21.3313 0.500962 21.0183 0.530574 20.7081C0.560186 20.3979 0.650791 20.0965 0.797204 19.8213C0.943617 19.5461 1.14296 19.3024 1.38382 19.1043C1.62468 18.9061 1.90232 18.7573 2.20085 18.6664L16.8941 14.174L47.1901 4.91387L61.8834 0.421434C62.1098 0.352434 62.3452 0.317253 62.582 0.317032C63.09 0.318171 63.5844 0.481727 63.9926 0.783743C64.4009 1.08576 64.7015 1.51036 64.8506 1.99537L71.0368 22.1734L71.135 22.4897H71.4645L71.3678 22.1734Z" fill="#3F3D56"/>
<path d="M19.6351 20.2192C19.3298 20.219 19.0326 20.1211 18.7871 19.9398C18.5415 19.7586 18.3607 19.5035 18.271 19.2121L16.2305 12.557C16.1756 12.3783 16.1566 12.1904 16.1745 12.0043C16.1923 11.8182 16.2467 11.6375 16.3346 11.4723C16.4224 11.3072 16.542 11.161 16.6864 11.0421C16.8309 10.9231 16.9974 10.8337 17.1764 10.779L45.0484 2.25858C45.4099 2.14841 45.8005 2.18599 46.1344 2.36306C46.4682 2.54013 46.7181 2.84223 46.8291 3.20305L48.8696 9.85823C48.9799 10.2193 48.9422 10.6092 48.7649 10.9426C48.5875 11.2759 48.285 11.5254 47.9237 11.6363L20.0517 20.1567C19.9167 20.1981 19.7763 20.2192 19.6351 20.2192Z" fill="#B1B3B6"/>
<path d="M30.3246 7.11106C32.0745 7.11106 33.493 5.69463 33.493 3.94738C33.493 2.20012 32.0745 0.783691 30.3246 0.783691C28.5748 0.783691 27.1562 2.20012 27.1562 3.94738C27.1562 5.69463 28.5748 7.11106 30.3246 7.11106Z" fill="#B1B3B6"/>
<path d="M30.3247 5.95078C31.4327 5.95078 32.331 5.05385 32.331 3.94744C32.331 2.84102 31.4327 1.94409 30.3247 1.94409C29.2166 1.94409 28.3184 2.84102 28.3184 3.94744C28.3184 5.05385 29.2166 5.95078 30.3247 5.95078Z" fill="white"/>
<path d="M95.6693 92.0908H42.1239C41.7669 92.0904 41.4246 91.9486 41.1722 91.6965C40.9198 91.4445 40.7778 91.1027 40.7773 90.7463V26.6816C40.7777 26.3251 40.9197 25.9834 41.1722 25.7313C41.4246 25.4792 41.7669 25.3374 42.1239 25.337H95.6693C96.0263 25.3374 96.3685 25.4792 96.621 25.7313C96.8734 25.9834 97.0154 26.3251 97.0158 26.6816V90.7463C97.0154 91.1027 96.8734 91.4445 96.621 91.6965C96.3685 91.9486 96.0263 92.0904 95.6693 92.0908Z" fill="#E6E6E6"/>
<path d="M71.0363 22.1733H37.6892C36.9753 22.1743 36.2908 22.458 35.786 22.9621C35.2812 23.4662 34.9971 24.1496 34.9961 24.8625V89.37L35.3129 89.2736V24.8625C35.3137 24.2334 35.5643 23.6303 36.0098 23.1855C36.4552 22.7407 37.0592 22.4905 37.6892 22.4897H71.1345L71.0363 22.1733ZM100.106 22.1733H37.6892C36.9753 22.1743 36.2908 22.458 35.786 22.9621C35.2812 23.4662 34.9971 24.1496 34.9961 24.8625V97.3109C34.9971 98.0238 35.2812 98.7072 35.786 99.2113C36.2908 99.7154 36.9753 99.999 37.6892 100H100.106C100.82 99.999 101.504 99.7154 102.009 99.2113C102.514 98.7072 102.798 98.0238 102.799 97.3109V24.8625C102.798 24.1496 102.514 23.4662 102.009 22.9621C101.504 22.458 100.82 22.1743 100.106 22.1733ZM102.482 97.3109C102.482 97.94 102.231 98.543 101.785 98.9879C101.34 99.4327 100.736 99.6829 100.106 99.6837H37.6892C37.0592 99.6829 36.4552 99.4327 36.0098 98.9879C35.5643 98.543 35.3137 97.94 35.3129 97.3109V24.8625C35.3137 24.2334 35.5643 23.6303 36.0098 23.1855C36.4552 22.7407 37.0592 22.4905 37.6892 22.4897H100.106C100.736 22.4905 101.34 22.7407 101.785 23.1855C102.231 23.6303 102.482 24.2334 102.482 24.8625V97.3109Z" fill="#3F3D56"/>
<path d="M83.4712 29.1334H54.3222C53.9442 29.1329 53.5818 28.9828 53.3145 28.7159C53.0473 28.449 52.8969 28.0871 52.8965 27.7097V20.7496C52.8969 20.3721 53.0473 20.0103 53.3146 19.7434C53.5818 19.4765 53.9442 19.3264 54.3222 19.3259H83.4712C83.8492 19.3264 84.2116 19.4765 84.4789 19.7434C84.7462 20.0103 84.8965 20.3721 84.897 20.7496V27.7097C84.8965 28.0871 84.7462 28.449 84.4789 28.7159C84.2116 28.9828 83.8492 29.1329 83.4712 29.1334Z" fill="#B1B3B6"/>
<path d="M68.8969 19.8005C70.6467 19.8005 72.0652 18.3841 72.0652 16.6368C72.0652 14.8896 70.6467 13.4731 68.8969 13.4731C67.147 13.4731 65.7285 14.8896 65.7285 16.6368C65.7285 18.3841 67.147 19.8005 68.8969 19.8005Z" fill="#B1B3B6"/>
<path d="M68.8966 18.5638C69.9624 18.5638 70.8265 17.7011 70.8265 16.6368C70.8265 15.5726 69.9624 14.7098 68.8966 14.7098C67.8308 14.7098 66.9668 15.5726 66.9668 16.6368C66.9668 17.7011 67.8308 18.5638 68.8966 18.5638Z" fill="white"/>
</g>
<defs>
<clipPath id="clip0_1039_10233">
<rect width="102.597" height="100" fill="white" transform="translate(0.201172)"/>
</clipPath>
</defs>
</svg>
