<svg width="52" height="50" viewBox="0 0 52 50" fill="none" xmlns="http://www.w3.org/2000/svg">
<g clip-path="url(#clip0_483_2090)">
<path d="M32.9071 11.2449H19.1047C18.7902 11.2453 18.4886 11.3704 18.2662 11.5928C18.0438 11.8152 17.9187 12.1167 17.9183 12.4313V43.1072L17.7601 43.1554L14.3742 44.1923C14.2137 44.2412 14.0404 44.2245 13.8923 44.1457C13.7441 44.067 13.6333 43.9327 13.5841 43.7723L3.51247 10.8739C3.46346 10.7135 3.48016 10.5401 3.55892 10.3919C3.63767 10.2438 3.77203 10.1329 3.93246 10.0838L9.15018 8.48614L24.2766 3.85609L29.4942 2.25842C29.5737 2.23399 29.6571 2.22545 29.7398 2.23329C29.8225 2.24114 29.9029 2.26522 29.9763 2.30416C30.0496 2.34309 30.1146 2.39612 30.1675 2.4602C30.2204 2.52428 30.2601 2.59816 30.2844 2.67761L32.8588 11.0867L32.9071 11.2449Z" fill="#F2F2F2"/>
<path d="M35.919 11.087L32.8162 0.952114C32.7646 0.783249 32.6802 0.62621 32.5678 0.489971C32.4555 0.353733 32.3174 0.240966 32.1615 0.158114C32.0055 0.0752617 31.8348 0.023947 31.659 0.00710447C31.4833 -0.00973811 31.3059 0.0082214 31.1371 0.0599549L23.8013 2.30538L8.6757 6.93623L1.3399 9.18245C0.999116 9.28709 0.713774 9.52267 0.546505 9.83748C0.379236 10.1523 0.343706 10.5206 0.447714 10.8616L11.0524 45.4984C11.1369 45.7736 11.3074 46.0146 11.5388 46.1858C11.7703 46.3571 12.0505 46.4496 12.3385 46.4499C12.4717 46.45 12.6042 46.43 12.7315 46.3906L17.7602 44.8514L17.9184 44.8024V44.6371L17.7602 44.6853L12.6849 46.2395C12.3841 46.3312 12.0592 46.2998 11.7815 46.1523C11.5037 46.0048 11.2959 45.7531 11.2035 45.4525L0.599604 10.8149C0.553817 10.666 0.537859 10.5095 0.552643 10.3544C0.567427 10.1992 0.612662 10.0486 0.685761 9.91096C0.758859 9.77335 0.858386 9.65152 0.978637 9.55243C1.09889 9.45335 1.2375 9.37895 1.38655 9.33351L8.72235 7.0873L23.848 2.45724L31.1837 0.211022C31.2968 0.176522 31.4143 0.158931 31.5325 0.158821C31.7862 0.159391 32.033 0.241169 32.2368 0.392177C32.4406 0.543185 32.5907 0.755488 32.6651 0.997989L35.7537 11.087L35.8027 11.2452H35.9672L35.919 11.087Z" fill="#636466"/>
<path d="M10.0919 10.11C9.93943 10.1099 9.79103 10.0609 9.66845 9.97029C9.54588 9.87966 9.45557 9.75214 9.41078 9.60642L8.39204 6.27887C8.36467 6.18949 8.35517 6.09559 8.36409 6.00254C8.37301 5.90948 8.40017 5.81909 8.44403 5.73654C8.48788 5.65398 8.54757 5.58088 8.61969 5.52139C8.6918 5.46191 8.77493 5.41721 8.86432 5.38986L22.7797 1.12966C22.9602 1.07457 23.1552 1.09336 23.3219 1.18189C23.4886 1.27043 23.6133 1.42148 23.6688 1.60189L24.6875 4.92948C24.7426 5.11 24.7238 5.30498 24.6352 5.47165C24.5467 5.63833 24.3957 5.76307 24.2153 5.81853L10.2998 10.0787C10.2324 10.0994 10.1624 10.1099 10.0919 10.11Z" fill="#B1B3B6"/>
<path d="M15.4285 3.55529C16.3022 3.55529 17.0104 2.84707 17.0104 1.97344C17.0104 1.09982 16.3022 0.391602 15.4285 0.391602C14.5549 0.391602 13.8467 1.09982 13.8467 1.97344C13.8467 2.84707 14.5549 3.55529 15.4285 3.55529Z" fill="#B1B3B6"/>
<path d="M15.4284 2.97502C15.9816 2.97502 16.4301 2.52656 16.4301 1.97335C16.4301 1.42014 15.9816 0.97168 15.4284 0.97168C14.8752 0.97168 14.4268 1.42014 14.4268 1.97335C14.4268 2.52656 14.8752 2.97502 15.4284 2.97502Z" fill="white"/>
<path d="M48.0524 46.0458H21.3193C21.141 46.0456 20.9701 45.9747 20.8441 45.8487C20.7181 45.7227 20.6472 45.5518 20.647 45.3736V13.3412C20.6472 13.163 20.7181 12.9921 20.8441 12.8661C20.9701 12.74 21.141 12.6691 21.3193 12.6689H48.0524C48.2306 12.6692 48.4015 12.74 48.5276 12.8661C48.6536 12.9921 48.7245 13.163 48.7247 13.3412V45.3736C48.7245 45.5518 48.6536 45.7227 48.5276 45.8487C48.4015 45.9747 48.2306 46.0456 48.0524 46.0458Z" fill="#E6E6E6"/>
<path d="M35.7537 11.0869H19.1048C18.7484 11.0874 18.4067 11.2292 18.1546 11.4813C17.9026 11.7333 17.7608 12.075 17.7603 12.4315V44.6853L17.9184 44.637V12.4315C17.9188 12.117 18.0439 11.8154 18.2663 11.593C18.4888 11.3706 18.7903 11.2455 19.1048 11.2451H35.8028L35.7537 11.0869ZM50.2671 11.0869H19.1048C18.7484 11.0874 18.4067 11.2292 18.1546 11.4813C17.9026 11.7333 17.7608 12.075 17.7603 12.4315V48.6557C17.7608 49.0121 17.9026 49.3538 18.1546 49.6059C18.4067 49.8579 18.7484 49.9998 19.1048 50.0003H50.2671C50.6236 49.9998 50.9653 49.8579 51.2173 49.6059C51.4694 49.3538 51.6112 49.0121 51.6117 48.6557V12.4315C51.6112 12.075 51.4694 11.7333 51.2173 11.4813C50.9653 11.2292 50.6236 11.0874 50.2671 11.0869ZM51.4535 48.6557C51.4531 48.9702 51.328 49.2718 51.1056 49.4942C50.8832 49.7166 50.5817 49.8417 50.2671 49.8421H19.1048C18.7903 49.8417 18.4888 49.7166 18.2663 49.4942C18.0439 49.2718 17.9188 48.9702 17.9184 48.6557V12.4315C17.9188 12.117 18.0439 11.8154 18.2663 11.593C18.4888 11.3706 18.7903 11.2455 19.1048 11.2451H50.2671C50.5817 11.2455 50.8832 11.3706 51.1056 11.593C51.328 11.8154 51.4531 12.117 51.4535 12.4315V48.6557Z" fill="#636466"/>
<path d="M41.9625 14.5668H27.4096C27.2209 14.5666 27.0399 14.4915 26.9065 14.3581C26.773 14.2246 26.698 14.0437 26.6978 13.855V10.3749C26.698 10.1862 26.773 10.0053 26.9065 9.87181C27.0399 9.73836 27.2209 9.6633 27.4096 9.66309H41.9625C42.1513 9.6633 42.3322 9.73836 42.4656 9.87181C42.5991 10.0053 42.6742 10.1862 42.6744 10.3749V13.855C42.6742 14.0437 42.5991 14.2246 42.4657 14.3581C42.3322 14.4915 42.1513 14.5666 41.9625 14.5668Z" fill="#B1B3B6"/>
<path d="M34.6858 9.90001C35.5595 9.90001 36.2677 9.1918 36.2677 8.31817C36.2677 7.44454 35.5595 6.73633 34.6858 6.73633C33.8122 6.73633 33.104 7.44454 33.104 8.31817C33.104 9.1918 33.8122 9.90001 34.6858 9.90001Z" fill="#B1B3B6"/>
<path d="M34.6861 9.28147C35.2183 9.28147 35.6496 8.8501 35.6496 8.31798C35.6496 7.78586 35.2183 7.35449 34.6861 7.35449C34.154 7.35449 33.7227 7.78586 33.7227 8.31798C33.7227 8.8501 34.154 9.28147 34.6861 9.28147Z" fill="white"/>
</g>
<defs>
<clipPath id="clip0_483_2090">
<rect width="51.223" height="50" fill="white" transform="translate(0.388672)"/>
</clipPath>
</defs>
</svg>
