<svg width="64" height="81" viewBox="0 0 64 81" fill="none" xmlns="http://www.w3.org/2000/svg">
<g clip-path="url(#clip0_473_1953)">
<path d="M49.6296 0.5H0.207031V46.9325H49.6296V0.5Z" fill="#E6E6E6"/>
<path d="M49.6296 0.5H0.207031V5.23198H49.6296V0.5Z" fill="#671E1E"/>
<path d="M47.6428 6.7627H2.16992V44.6128H47.6428V6.7627Z" fill="white"/>
<path d="M33.6269 24.751H16.1777V26.2297H33.6269V24.751Z" fill="#E6E6E6"/>
<path d="M33.6269 28.5957H16.1777V30.0744H33.6269V28.5957Z" fill="#E6E6E6"/>
<path d="M37.4716 20.7588H12.333V22.3854H37.4716V20.7588Z" fill="#E6E6E6"/>
<path d="M38.8905 35.4072H28.0957V38.0762H38.8905V35.4072Z" fill="#EC770E"/>
<path d="M49.3355 78.7799L47.5227 78.7798L46.6602 71.7871L49.3359 71.7873L49.3355 78.7799Z" fill="#FFB7B7"/>
<path d="M46.2278 78.2617H49.7241V80.4631H44.0264C44.0264 79.8793 44.2583 79.3193 44.6711 78.9065C45.084 78.4936 45.6439 78.2617 46.2278 78.2617Z" fill="#232323"/>
<path d="M56.1373 78.7799L54.3245 78.7798L53.4619 71.7871L56.1377 71.7873L56.1373 78.7799Z" fill="#FFB7B7"/>
<path d="M53.0295 78.2617H56.5258V80.4631H50.8281C50.8281 80.174 50.8851 79.8878 50.9957 79.6207C51.1063 79.3536 51.2685 79.1109 51.4729 78.9065C51.6773 78.7021 51.92 78.5399 52.1871 78.4293C52.4542 78.3187 52.7404 78.2617 53.0295 78.2617Z" fill="#232323"/>
<path d="M55.9166 57.9526C55.7213 57.8269 55.5559 57.66 55.4321 57.4635C55.3083 57.267 55.229 57.0458 55.2 56.8154C55.1709 56.585 55.1927 56.351 55.2638 56.1299C55.335 55.9089 55.4537 55.7061 55.6117 55.5359L54.418 38.5957L57.8565 38.9292L57.9509 55.5187C58.2193 55.8031 58.374 56.176 58.3858 56.5668C58.3976 56.9576 58.2656 57.3392 58.0148 57.6392C57.7641 57.9392 57.412 58.1368 57.0253 58.1946C56.6386 58.2523 56.2441 58.1662 55.9166 57.9526Z" fill="#FFB7B7"/>
<path d="M49.2503 75.2562L47.2545 75.161C47.0845 75.153 46.9241 75.08 46.8062 74.9573C46.6883 74.8345 46.6219 74.6713 46.6207 74.5011L46.4815 54.3078C46.4808 54.212 46.5009 54.1171 46.5403 54.0297C46.5797 53.9423 46.6375 53.8645 46.7097 53.8015C46.782 53.7385 46.867 53.6919 46.959 53.6648C47.0509 53.6377 47.1476 53.6308 47.2425 53.6446L55.2268 54.8036C55.3845 54.8257 55.529 54.904 55.6337 55.024C55.7384 55.1441 55.7962 55.2979 55.7966 55.4572L56.8235 74.1683C56.8242 74.2562 56.8074 74.3432 56.7743 74.4245C56.7411 74.5058 56.6922 74.5798 56.6304 74.6421C56.5685 74.7045 56.4949 74.7539 56.4139 74.7877C56.3328 74.8214 56.2459 74.8388 56.1581 74.8388H54.0065C53.8478 74.8395 53.6941 74.7831 53.5734 74.6799C53.4528 74.5768 53.3732 74.4337 53.3491 74.2768C53.3491 74.2768 51.724 60.2417 51.5008 60.25C51.2764 60.2541 49.9427 74.6706 49.9427 74.6706C49.9228 74.832 49.8448 74.9807 49.7231 75.0887C49.6014 75.1967 49.4445 75.2565 49.2819 75.257C49.2714 75.257 49.2609 75.2568 49.2503 75.2562Z" fill="#232323"/>
<path d="M55.1956 44.2882C55.1151 44.2302 55.0486 44.155 55.001 44.068C54.9534 43.9809 54.926 43.8843 54.9207 43.7853L54.6688 39.2195C54.6439 38.7672 54.7873 38.3216 55.0714 37.9687C55.3555 37.6159 55.7603 37.3807 56.2075 37.3086C56.6548 37.2364 57.1129 37.3324 57.4936 37.5781C57.8742 37.8237 58.1504 38.2016 58.269 38.6388L59.3758 42.7209C59.4218 42.8912 59.3983 43.0728 59.3105 43.2259C59.2228 43.3789 59.0779 43.4909 58.9077 43.5373L55.7593 44.3909C55.6637 44.417 55.5634 44.4213 55.4658 44.4036C55.3682 44.3858 55.2759 44.3464 55.1956 44.2882Z" fill="#EC770E"/>
<path d="M52.255 33.4367C54.2609 33.4367 55.8869 31.8107 55.8869 29.8048C55.8869 27.7989 54.2609 26.1729 52.255 26.1729C50.2491 26.1729 48.623 27.7989 48.623 29.8048C48.623 31.8107 50.2491 33.4367 52.255 33.4367Z" fill="#FFB7B7"/>
<path d="M39.0933 36.9406C39.1115 37.0204 39.1233 37.1015 39.1287 37.1832L45.481 40.8478L47.025 39.9589L48.6711 42.1138L45.368 44.468L38.121 38.7508C37.8254 38.8602 37.5035 38.877 37.1982 38.799C36.8928 38.721 36.6184 38.5519 36.4115 38.3141C36.2046 38.0764 36.075 37.7813 36.0399 37.4681C36.0048 37.1549 36.0659 36.8384 36.2151 36.5608C36.3642 36.2831 36.5943 36.0575 36.8748 35.9138C37.1554 35.7701 37.473 35.7153 37.7854 35.7565C38.0979 35.7977 38.3904 35.9331 38.624 36.1447C38.8576 36.3562 39.0213 36.6338 39.0933 36.9406Z" fill="#FFB7B7"/>
<path d="M45.7079 40.5367C45.6973 40.4381 45.709 40.3383 45.7421 40.2448C45.7752 40.1513 45.8288 40.0664 45.8991 39.9964L49.1321 36.7627C49.4525 36.4423 49.8801 36.2519 50.3325 36.2281C50.7849 36.2043 51.2301 36.3489 51.5822 36.634C51.9343 36.919 52.1685 37.3243 52.2394 37.7718C52.3104 38.2192 52.2132 38.6771 51.9666 39.0571L49.6642 42.6049C49.568 42.7528 49.4171 42.8565 49.2445 42.8932C49.0719 42.93 48.8919 42.8968 48.7438 42.8009L46.0075 41.0251C45.9242 40.9713 45.854 40.8995 45.8022 40.8149C45.7503 40.7304 45.7181 40.6353 45.7079 40.5367Z" fill="#EC770E"/>
<path d="M54.8249 32.6791C54.1473 33.4008 52.889 33.0134 52.8008 32.0273C52.7938 31.9508 52.7943 31.8738 52.8022 31.7973C52.8478 31.3605 53.1002 30.964 53.0397 30.5029C53.026 30.3881 52.9833 30.2787 52.9155 30.1851C52.3756 29.4621 51.1081 30.5085 50.5986 29.854C50.2861 29.4526 50.6534 28.8208 50.4136 28.3722C50.0972 27.7802 49.1598 28.0722 48.572 27.748C47.918 27.3873 47.9571 26.3838 48.3876 25.7735C48.9127 25.0291 49.8332 24.632 50.7423 24.5747C51.6514 24.5175 52.5542 24.7632 53.4029 25.094C54.3672 25.4698 55.3234 25.9891 55.9169 26.837C56.6385 27.8682 56.708 29.2545 56.347 30.4602C56.1275 31.1937 55.3782 32.0897 54.8249 32.6791Z" fill="#636466"/>
<path d="M63.6378 80.4354H35.0981C35.0589 80.4354 35.0212 80.4198 34.9935 80.3921C34.9658 80.3644 34.9502 80.3267 34.9502 80.2875C34.9502 80.2483 34.9658 80.2107 34.9935 80.183C35.0212 80.1552 35.0589 80.1396 35.0981 80.1396H63.6378C63.677 80.1396 63.7146 80.1552 63.7424 80.183C63.7701 80.2107 63.7857 80.2483 63.7857 80.2875C63.7857 80.3267 63.7701 80.3644 63.7424 80.3921C63.7146 80.4198 63.677 80.4354 63.6378 80.4354Z" fill="#EC770E"/>
<path d="M55.88 35.8632C55.8169 35.8179 55.7526 35.7733 55.687 35.7296C55.3383 35.4977 54.9607 35.3126 54.5638 35.1789V34.2246H51.7542V35.11C50.8228 35.367 49.9875 35.892 49.3522 36.62C48.7169 37.3479 48.3097 38.2465 48.1811 39.2041L46.268 53.4076C46.2557 53.4963 46.2615 53.5867 46.2852 53.6732C46.3089 53.7596 46.3498 53.8404 46.4056 53.9105C46.4602 53.9802 46.5284 54.038 46.606 54.0806C46.6836 54.1231 46.7691 54.1494 46.8572 54.1579C47.5201 54.224 48.8949 54.4809 50.6545 55.4586C51.5007 55.9273 52.4533 56.1705 53.4206 56.1646C54.1886 56.1616 54.9503 56.026 55.6722 55.7637C55.7945 55.7186 55.9008 55.6383 55.9776 55.5329C56.0543 55.4276 56.0982 55.3018 56.1037 55.1715C56.1725 53.6429 56.5754 45.775 57.7486 40.9757C57.9767 40.0343 57.9209 39.0464 57.5884 38.1366C57.2558 37.2268 56.6614 36.4357 55.88 35.8632Z" fill="#EC770E"/>
<path d="M22.6961 26.8213L18.9873 22.0305L21.1441 20.3454L22.9002 22.6137L28.8333 16.3223L30.8172 18.2104L22.6961 26.8213Z" fill="#671E1E"/>
</g>
<defs>
<clipPath id="clip0_473_1953">
<rect width="63.586" height="80" fill="white" transform="translate(0.207031 0.5)"/>
</clipPath>
</defs>
</svg>
