<svg width="400" height="248" viewBox="0 0 400 248" fill="none" xmlns="http://www.w3.org/2000/svg">
<g clipPath="url(#clip0_88_6970)">
<path d="M40.3746 227.013C42.0352 227.596 43.8181 227.743 45.5516 227.437C47.2851 227.132 48.9108 226.385 50.272 225.269C53.7386 222.359 54.8257 217.567 55.7098 213.129L58.3255 200L52.8492 203.771C48.9108 206.482 44.8838 209.281 42.1571 213.209C39.4304 217.137 38.2408 222.499 40.431 226.749" fill="#E6E6E6"/>
<path d="M41.2202 243.822C40.531 238.8 39.8218 233.713 40.3064 228.638C40.7359 224.13 42.1112 219.728 44.911 216.118C46.3972 214.205 48.2055 212.566 50.2548 211.275C50.789 210.938 51.2809 211.785 50.7489 212.12C47.203 214.361 44.4603 217.67 42.9163 221.57C41.2111 225.907 40.9373 230.635 41.231 235.242C41.4086 238.029 41.7858 240.796 42.1647 243.561C42.1946 243.686 42.176 243.818 42.1125 243.93C42.049 244.041 41.9454 244.125 41.8227 244.163C41.6975 244.197 41.5641 244.18 41.4514 244.116C41.3387 244.052 41.2557 243.946 41.2206 243.821L41.2202 243.822Z" fill="#F2F2F2"/>
<path d="M46.1814 235.764C46.8935 236.847 47.8724 237.728 49.0239 238.322C50.1754 238.917 51.4605 239.204 52.7555 239.158C56.0844 239 58.8584 236.678 61.3554 234.472L68.7425 227.95L63.8536 227.716C60.3378 227.548 56.7312 227.39 53.3825 228.475C50.0337 229.561 46.9454 232.169 46.3332 235.635" fill="#E6E6E6"/>
<path d="M39.2717 246.708C42.5901 240.836 46.4388 234.311 53.3164 232.225C55.2286 231.647 57.2336 231.44 59.2235 231.615C59.8508 231.669 59.6941 232.636 59.0682 232.582C55.7325 232.305 52.4033 233.186 49.641 235.076C46.9828 236.885 44.9131 239.401 43.1615 242.068C42.0885 243.702 41.1273 245.406 40.1662 247.106C39.8591 247.65 38.961 247.258 39.2717 246.708Z" fill="#F2F2F2"/>
<path d="M372.85 234.002C371.884 234.867 370.713 235.468 369.448 235.749C368.183 236.029 366.866 235.979 365.626 235.603C362.448 234.6 360.36 231.646 358.51 228.875L353.035 220.682L357.821 221.705C361.263 222.441 364.79 223.21 367.751 225.115C370.711 227.02 373.03 230.331 372.736 233.839" fill="#E6E6E6"/>
<path d="M376.732 246.349C375.025 239.825 372.972 232.532 366.856 228.758C365.155 227.711 363.269 226.998 361.301 226.659C360.68 226.551 360.585 227.525 361.204 227.633C364.499 228.218 367.493 229.92 369.68 232.454C371.788 234.882 373.146 237.844 374.158 240.87C374.777 242.724 375.271 244.616 375.766 246.506C375.924 247.111 376.892 246.96 376.732 246.349Z" fill="#F2F2F2"/>
<path d="M309.485 150.804H197.602C196.709 150.803 195.852 150.448 195.22 149.816C194.589 149.184 194.233 148.327 194.232 147.434V109.69C194.233 108.797 194.589 107.94 195.22 107.309C195.852 106.677 196.709 106.321 197.602 106.32H309.485C310.379 106.321 311.235 106.677 311.867 107.308C312.499 107.94 312.854 108.797 312.855 109.69V147.434C312.854 148.327 312.499 149.184 311.867 149.816C311.235 150.448 310.379 150.803 309.485 150.804Z" fill="#F1F1F1"/>
<path d="M241.412 116.43H211.756V119.8H241.412V116.43Z" fill="#671E1E"/>
<path d="M280.503 120.474C281.62 120.474 282.525 119.568 282.525 118.452C282.525 117.335 281.62 116.43 280.503 116.43C279.387 116.43 278.481 117.335 278.481 118.452C278.481 119.568 279.387 120.474 280.503 120.474Z" fill="#671E1E"/>
<path d="M287.243 120.474C288.36 120.474 289.265 119.568 289.265 118.452C289.265 117.335 288.36 116.43 287.243 116.43C286.127 116.43 285.221 117.335 285.221 118.452C285.221 119.568 286.127 120.474 287.243 120.474Z" fill="#671E1E"/>
<path d="M293.983 120.474C295.1 120.474 296.005 119.568 296.005 118.452C296.005 117.335 295.1 116.43 293.983 116.43C292.867 116.43 291.961 117.335 291.961 118.452C291.961 119.568 292.867 120.474 293.983 120.474Z" fill="#671E1E"/>
<path d="M309.485 198.658H197.602C196.709 198.656 195.852 198.301 195.22 197.669C194.589 197.038 194.233 196.181 194.232 195.288V157.544C194.233 156.65 194.589 155.794 195.22 155.162C195.852 154.53 196.709 154.175 197.602 154.174H309.485C310.379 154.175 311.235 154.53 311.867 155.162C312.499 155.794 312.854 156.65 312.855 157.544V195.288C312.854 196.181 312.499 197.038 311.867 197.669C311.235 198.301 310.379 198.656 309.485 198.658Z" fill="#F1F1F1"/>
<path d="M241.412 164.283H211.756V167.653H241.412V164.283Z" fill="#671E1E"/>
<path d="M280.503 168.327C281.62 168.327 282.525 167.422 282.525 166.305C282.525 165.188 281.62 164.283 280.503 164.283C279.387 164.283 278.481 165.188 278.481 166.305C278.481 167.422 279.387 168.327 280.503 168.327Z" fill="#671E1E"/>
<path d="M287.243 168.327C288.36 168.327 289.265 167.422 289.265 166.305C289.265 165.188 288.36 164.283 287.243 164.283C286.127 164.283 285.221 165.188 285.221 166.305C285.221 167.422 286.127 168.327 287.243 168.327Z" fill="#671E1E"/>
<path d="M293.983 168.327C295.1 168.327 296.005 167.422 296.005 166.305C296.005 165.188 295.1 164.283 293.983 164.283C292.867 164.283 291.961 165.188 291.961 166.305C291.961 167.422 292.867 168.327 293.983 168.327Z" fill="#671E1E"/>
<path d="M309.485 246.511H197.602C196.709 246.51 195.852 246.155 195.22 245.523C194.589 244.891 194.233 244.034 194.232 243.141V205.397C194.233 204.504 194.589 203.647 195.22 203.016C195.852 202.384 196.709 202.028 197.602 202.027H309.485C310.379 202.028 311.235 202.384 311.867 203.016C312.499 203.647 312.854 204.504 312.855 205.397V243.141C312.854 244.034 312.499 244.891 311.867 245.523C311.235 246.155 310.379 246.51 309.485 246.511Z" fill="#F1F1F1"/>
<path d="M241.412 212.137H211.756V215.507H241.412V212.137Z" fill="#671E1E"/>
<path d="M280.503 216.181C281.62 216.181 282.525 215.275 282.525 214.159C282.525 213.042 281.62 212.137 280.503 212.137C279.387 212.137 278.481 213.042 278.481 214.159C278.481 215.275 279.387 216.181 280.503 216.181Z" fill="#671E1E"/>
<path d="M287.243 216.181C288.36 216.181 289.265 215.275 289.265 214.159C289.265 213.042 288.36 212.137 287.243 212.137C286.127 212.137 285.221 213.042 285.221 214.159C285.221 215.275 286.127 216.181 287.243 216.181Z" fill="#671E1E"/>
<path d="M293.983 216.181C295.1 216.181 296.005 215.275 296.005 214.159C296.005 213.042 295.1 212.137 293.983 212.137C292.867 212.137 291.961 213.042 291.961 214.159C291.961 215.275 292.867 216.181 293.983 216.181Z" fill="#671E1E"/>
<path d="M267.307 69.4644L267.183 69.373L267.18 69.3708C267.02 69.2522 266.839 69.1663 266.646 69.1179C266.453 69.0694 266.253 69.0595 266.056 69.0885C265.86 69.1175 265.671 69.1851 265.5 69.2871C265.329 69.3892 265.181 69.5239 265.062 69.6835L239.879 103.591H237.108V102.94C237.108 102.779 237.044 102.625 236.931 102.512C236.817 102.398 236.663 102.334 236.502 102.334H234.849C234.689 102.334 234.535 102.398 234.421 102.512C234.308 102.625 234.244 102.779 234.244 102.94V103.591H233.287V102.94C233.287 102.779 233.223 102.625 233.11 102.512C232.996 102.398 232.842 102.334 232.682 102.334H231.029C230.868 102.334 230.714 102.398 230.6 102.512C230.487 102.625 230.423 102.779 230.423 102.94V103.591H229.469V102.94C229.469 102.779 229.406 102.625 229.292 102.512C229.179 102.398 229.024 102.334 228.864 102.334H227.211C227.05 102.334 226.896 102.398 226.783 102.512C226.669 102.625 226.605 102.779 226.605 102.94V103.591H225.649V102.94C225.649 102.779 225.585 102.625 225.471 102.512C225.358 102.398 225.204 102.334 225.043 102.334H223.39C223.229 102.334 223.075 102.398 222.962 102.512C222.848 102.625 222.785 102.779 222.785 102.94V103.591H221.831V102.94C221.831 102.779 221.767 102.625 221.654 102.512C221.54 102.398 221.386 102.334 221.225 102.334H219.572C219.493 102.334 219.414 102.35 219.341 102.38C219.267 102.411 219.2 102.455 219.144 102.512C219.088 102.568 219.043 102.635 219.013 102.708C218.982 102.782 218.967 102.86 218.967 102.94V103.591H218.01V102.94C218.01 102.779 217.946 102.625 217.833 102.512C217.719 102.398 217.565 102.334 217.405 102.334H215.752C215.591 102.334 215.437 102.398 215.323 102.512C215.21 102.625 215.146 102.779 215.146 102.94V103.591H214.189V102.94C214.189 102.779 214.125 102.625 214.012 102.512C213.898 102.398 213.744 102.334 213.584 102.334H211.931C211.77 102.334 211.616 102.398 211.503 102.512C211.389 102.625 211.325 102.779 211.325 102.94V103.591H210.372V102.94C210.372 102.779 210.308 102.625 210.194 102.512C210.081 102.398 209.927 102.334 209.766 102.334H208.113C207.952 102.334 207.798 102.398 207.685 102.512C207.571 102.625 207.507 102.779 207.507 102.94V103.591H206.551V102.94C206.551 102.779 206.487 102.625 206.373 102.512C206.26 102.398 206.106 102.334 205.945 102.334H204.292C204.132 102.334 203.978 102.398 203.864 102.512C203.75 102.625 203.687 102.779 203.687 102.94V103.591H202.733V102.94C202.733 102.779 202.669 102.625 202.556 102.512C202.442 102.398 202.288 102.334 202.127 102.334H200.474C200.314 102.334 200.16 102.398 200.046 102.512C199.933 102.625 199.869 102.779 199.869 102.94V103.591H198.67C198.471 103.591 198.274 103.63 198.091 103.706C197.907 103.782 197.74 103.894 197.6 104.034C197.459 104.175 197.348 104.342 197.271 104.525C197.195 104.709 197.156 104.906 197.156 105.104V106.549C197.156 106.747 197.195 106.944 197.271 107.128C197.348 107.312 197.459 107.478 197.6 107.619C197.74 107.76 197.907 107.871 198.091 107.947C198.274 108.023 198.471 108.062 198.67 108.062H239.627C240.146 108.062 240.649 107.884 241.051 107.556C241.453 107.229 241.731 106.772 241.836 106.265L241.852 106.276L267.617 71.5853L267.619 71.5823C267.859 71.2599 267.96 70.8557 267.902 70.4586C267.843 70.0614 267.629 69.7038 267.307 69.4644Z" fill="black"/>
<path d="M108.15 233.654L113.237 236.258L125.7 217.874L118.192 214.031L108.15 233.654Z" fill="#FFB7B7"/>
<path d="M107.702 231.328L117.721 236.455L117.721 236.456C119.415 237.322 120.694 238.826 121.279 240.636C121.863 242.446 121.705 244.415 120.838 246.108L120.732 246.315L104.328 237.921L107.702 231.328Z" fill="#2F2E41"/>
<path d="M166.907 240.776H172.622L175.34 218.732H166.906L166.907 240.776Z" fill="#FFB7B7"/>
<path d="M165.449 238.911L176.704 238.91H176.704C178.606 238.91 180.431 239.666 181.776 241.011C183.121 242.356 183.876 244.18 183.877 246.082V246.315L165.449 246.316L165.449 238.911Z" fill="#2F2E41"/>
<path d="M140.175 60.9751C140.175 60.9751 136.348 58.0431 136.348 65.2049L135.744 88.8716L142.491 111.229L146.419 103.978L144.808 88.2674L140.175 60.9751Z" fill="#EC770E"/>
<path d="M181.112 125.709C181.112 125.709 185.55 147.321 179.929 165.057L176.822 233.25L165.432 232.363L161.438 181.772L157.592 156.625L149.604 179.553L123.273 228.073L111.144 218.606C111.144 218.606 124.585 181.929 134.516 174.228L139.496 117.504L181.112 125.709Z" fill="#EC770E"/>
<path d="M179.006 25.323C182.447 19.0292 180.134 11.1381 173.84 7.69769C167.546 4.25724 159.655 6.57029 156.215 12.864C152.774 19.1577 155.087 27.0488 161.381 30.4892C167.675 33.9297 175.566 31.6167 179.006 25.323Z" fill="#FFB7B7"/>
<path d="M166.692 21.8476C168.248 22.0502 169.423 20.4573 169.968 18.9848C170.512 17.5123 170.927 15.7981 172.281 15.0027C174.13 13.916 176.496 15.223 178.611 14.8645C180.999 14.4596 182.552 11.9286 182.674 9.50937C182.795 7.09016 181.833 4.76338 180.888 2.53289L180.558 5.30489C180.602 4.36539 180.405 3.43029 179.984 2.58903C179.563 1.74777 178.934 1.02849 178.156 0.5L178.581 4.56747C178.491 4.0063 178.29 3.46853 177.991 2.985C177.693 2.50147 177.301 2.08171 176.84 1.74981C176.378 1.41791 175.856 1.1804 175.302 1.05092C174.749 0.921447 174.175 0.902545 173.615 0.995302L173.681 3.41886C170.923 3.09086 168.141 2.7624 165.374 3.01228C162.608 3.26217 159.822 4.13748 157.725 5.95946C154.588 8.68485 153.443 13.1725 153.827 17.3098C154.212 21.4472 155.92 25.3339 157.7 29.0885C158.148 30.0331 158.767 31.0991 159.806 31.2195C160.739 31.3276 161.593 30.5476 161.883 29.6542C162.106 28.7375 162.097 27.7795 161.857 26.867C161.595 25.4724 161.264 24.047 161.511 22.6496C161.758 21.2522 162.763 19.8713 164.172 19.7001C165.58 19.5288 167.022 21.139 166.344 22.386L166.692 21.8476Z" fill="#636466"/>
<path d="M181.916 131.487L138.564 128.69L141.827 115.172L181.449 124.029L181.916 131.487Z" fill="white"/>
<path d="M155.181 36.8044L157.9 33.0293C157.9 33.0293 160.939 34.0622 169.078 38.1137L169.654 41.6507L183.782 128.551L158.101 127.443L151.108 127.294L148.819 122.164L145.997 127.186L139.168 127.04L132.219 123.012L139.067 102.064L141.283 82.9295L137.858 64.9024C137.858 64.9024 133.55 48.3486 150.145 39.4229L155.181 36.8044Z" fill="#EC770E"/>
<path d="M213.064 102.588C212.435 102.748 211.778 102.768 211.141 102.647C210.504 102.526 209.9 102.266 209.374 101.886C208.848 101.507 208.411 101.017 208.095 100.45C207.779 99.8833 207.591 99.2543 207.544 98.6071L192.308 94.5261L198.437 89.084L211.965 93.7937C213.058 93.787 214.115 94.1813 214.936 94.9019C215.757 95.6225 216.286 96.6192 216.421 97.7033C216.556 98.7873 216.289 99.8834 215.671 100.784C215.052 101.684 214.124 102.326 213.064 102.588Z" fill="#FFB7B7"/>
<path d="M206.24 100.285C205.919 100.46 205.566 100.565 205.202 100.594C204.838 100.623 204.473 100.575 204.129 100.453L179.065 90.9402C172.95 88.7727 167.831 84.4579 164.66 78.7986L154.208 60.1535C153.474 59.3343 152.909 58.3783 152.545 57.3404C152.18 56.3024 152.025 55.2029 152.086 54.1047C152.147 53.0065 152.425 51.9311 152.902 50.9402C153.379 49.9492 154.048 49.0622 154.868 48.3297C155.689 47.5973 156.646 47.0338 157.684 46.6716C158.723 46.3095 159.823 46.1556 160.921 46.219C162.019 46.2823 163.094 46.5615 164.084 47.0407C165.074 47.5199 165.96 48.1896 166.691 49.0115L184.782 77.6852L207.549 91.0331C207.995 91.3259 208.34 91.7487 208.538 92.2442C208.737 92.7398 208.778 93.2842 208.656 93.804L207.524 98.6015C207.403 99.116 207.127 99.5811 206.734 99.935C206.584 100.071 206.418 100.189 206.24 100.285Z" fill="#EC770E"/>
<path d="M399.577 247.272H0.42328C0.311019 247.272 0.203356 247.228 0.123976 247.148C0.0445952 247.069 0 246.961 0 246.849C0 246.737 0.0445952 246.629 0.123976 246.55C0.203356 246.47 0.311019 246.426 0.42328 246.426H399.577C399.689 246.426 399.797 246.47 399.876 246.55C399.955 246.629 400 246.737 400 246.849C400 246.961 399.955 247.069 399.876 247.148C399.797 247.228 399.689 247.272 399.577 247.272Z" fill="#CBCBCB"/>
</g>
<defs>
<clipPath id="clip0_88_6970">
<rect width="400" height="246.867" fill="white" transform="translate(0 0.5)"/>
</clipPath>
</defs>
</svg>
