<svg width="200" height="179" viewBox="0 0 200 179" fill="none" xmlns="http://www.w3.org/2000/svg">
<g clip-path="url(#clip0_671_9592)">
<path d="M43.2353 54.9473C42.6987 54.9473 42.1841 55.1604 41.8047 55.5398C41.4253 55.9192 41.2122 56.4338 41.2122 56.9704C41.2122 57.507 41.4253 58.0215 41.8047 58.401C42.1841 58.7804 42.6987 58.9935 43.2353 58.9935H68.666V58.1109C68.6659 57.4837 68.8216 56.8663 69.1191 56.3141C69.4166 55.7619 69.8466 55.2922 70.3704 54.9473H43.2353Z" fill="#E6E6E6"/>
<path d="M66.376 50.3959H57.7777C57.2411 50.3959 56.7265 50.1827 56.3471 49.8033C55.9677 49.4239 55.7546 48.9093 55.7546 48.3727C55.7546 47.8362 55.9677 47.3216 56.3471 46.9422C56.7265 46.5628 57.2411 46.3496 57.7777 46.3496H66.376C66.9126 46.3496 67.4271 46.5628 67.8065 46.9422C68.186 47.3216 68.3991 47.8362 68.3991 48.3727C68.3991 48.9093 68.186 49.4239 67.8065 49.8033C67.4271 50.1827 66.9126 50.3959 66.376 50.3959Z" fill="#E6E6E6"/>
<path d="M47.0917 35.9798H13.7101C13.1736 35.9798 12.659 35.7667 12.2796 35.3873C11.9002 35.0079 11.687 34.4933 11.687 33.9567C11.687 33.4202 11.9002 32.9056 12.2796 32.5262C12.659 32.1467 13.1736 31.9336 13.7101 31.9336H47.0917C47.6283 31.9336 48.1429 32.1467 48.5223 32.5262C48.9017 32.9056 49.1148 33.4202 49.1148 33.9567C49.1148 34.4933 48.9017 35.0079 48.5223 35.3873C48.1429 35.7667 47.6283 35.9798 47.0917 35.9798Z" fill="#E6E6E6"/>
<path d="M32.5505 27.3822H28.2513C27.7148 27.3822 27.2002 27.169 26.8208 26.7896C26.4414 26.4102 26.2282 25.8956 26.2282 25.3591C26.2282 24.8225 26.4414 24.3079 26.8208 23.9285C27.2002 23.5491 27.7148 23.3359 28.2513 23.3359H32.5505C33.087 23.3359 33.6016 23.5491 33.981 23.9285C34.3605 24.3079 34.5736 24.8225 34.5736 25.3591C34.5736 25.8956 34.3605 26.4102 33.981 26.7896C33.6016 27.169 33.087 27.3822 32.5505 27.3822Z" fill="#E6E6E6"/>
<path d="M68.412 95.6351H36.9428C35.803 95.6338 34.7103 95.1804 33.9043 94.3744C33.0983 93.5685 32.645 92.4757 32.6437 91.3359V41.557C32.645 40.4171 33.0983 39.3244 33.9043 38.5184C34.7103 37.7125 35.803 37.2591 36.9428 37.2578H87.2108C88.3506 37.2591 89.4434 37.7125 90.2494 38.5184C91.0554 39.3244 91.5087 40.4171 91.51 41.557V53.8949H91.0042V41.557C91.0031 40.5512 90.603 39.587 89.8919 38.8759C89.1807 38.1648 88.2165 37.7647 87.2108 37.7636H36.9428C35.9371 37.7647 34.9729 38.1648 34.2618 38.8759C33.5506 39.587 33.1506 40.5512 33.1495 41.557V91.3359C33.1506 92.3416 33.5506 93.3058 34.2618 94.017C34.9729 94.7281 35.9371 95.1281 36.9428 95.1293H68.412V95.6351Z" fill="#CCCCCC"/>
<path d="M32.8966 65.8354H9.95704C8.81723 65.8341 7.72448 65.3807 6.91851 64.5748C6.11254 63.7688 5.65918 62.676 5.6579 61.5362V21.0589C5.65918 19.9191 6.11254 18.8263 6.91851 18.0204C7.72448 17.2144 8.81723 16.761 9.95704 16.7598H50.8448C51.9846 16.761 53.0773 17.2144 53.8833 18.0204C54.6893 18.8263 55.1426 19.9191 55.1439 21.0589V37.5106H54.6381V21.0589C54.637 20.0532 54.237 19.089 53.5258 18.3779C52.8147 17.6667 51.8505 17.2667 50.8448 17.2655H9.95704C8.95133 17.2667 7.98713 17.6667 7.27599 18.3779C6.56484 19.089 6.16482 20.0532 6.16368 21.0589V61.5362C6.16482 62.5419 6.56484 63.5061 7.27599 64.2173C7.98713 64.9284 8.95133 65.3285 9.95704 65.3296H32.8966V65.8354Z" fill="#CCCCCC"/>
<path d="M135.287 54.9473C135.811 55.2922 136.241 55.7619 136.539 56.3141C136.836 56.8663 136.992 57.4837 136.992 58.1109V58.9935H162.423C162.959 58.9935 163.474 58.7804 163.853 58.401C164.233 58.0215 164.446 57.507 164.446 56.9704C164.446 56.4338 164.233 55.9192 163.853 55.5398C163.474 55.1604 162.959 54.9473 162.423 54.9473H135.287Z" fill="#E6E6E6"/>
<path d="M137.259 48.3727C137.259 47.8364 137.473 47.3221 137.852 46.9428C138.231 46.5636 138.746 46.3502 139.282 46.3496H147.88C148.417 46.3496 148.931 46.5628 149.311 46.9422C149.69 47.3216 149.903 47.8362 149.903 48.3727C149.903 48.9093 149.69 49.4239 149.311 49.8033C148.931 50.1827 148.417 50.3959 147.88 50.3959H139.282C138.746 50.3952 138.231 50.1819 137.852 49.8026C137.473 49.4233 137.259 48.9091 137.259 48.3727Z" fill="#E6E6E6"/>
<path d="M156.543 33.9567C156.544 33.4203 156.757 32.9061 157.136 32.5268C157.516 32.1476 158.03 31.9342 158.566 31.9336H191.948C192.484 31.9336 192.999 32.1467 193.378 32.5262C193.758 32.9056 193.971 33.4202 193.971 33.9567C193.971 34.4933 193.758 35.0079 193.378 35.3873C192.999 35.7667 192.484 35.9798 191.948 35.9798H158.566C158.03 35.9792 157.516 35.7659 157.136 35.3866C156.757 35.0073 156.544 34.4931 156.543 33.9567Z" fill="#E6E6E6"/>
<path d="M171.084 25.3591C171.085 24.8227 171.298 24.3085 171.678 23.9292C172.057 23.5499 172.571 23.3366 173.107 23.3359H177.407C177.943 23.3359 178.458 23.5491 178.837 23.9285C179.217 24.3079 179.43 24.8225 179.43 25.3591C179.43 25.8956 179.217 26.4102 178.837 26.7896C178.458 27.169 177.943 27.3822 177.407 27.3822H173.107C172.571 27.3816 172.057 27.1682 171.678 26.789C171.298 26.4097 171.085 25.8954 171.084 25.3591Z" fill="#E6E6E6"/>
<path d="M137.246 95.6351H168.715C169.855 95.6338 170.948 95.1804 171.754 94.3744C172.56 93.5685 173.013 92.4757 173.014 91.3359V41.557C173.013 40.4171 172.56 39.3244 171.754 38.5184C170.948 37.7125 169.855 37.2591 168.715 37.2578H118.447C117.307 37.2591 116.214 37.7125 115.408 38.5184C114.603 39.3244 114.149 40.4171 114.148 41.557V53.8949H114.654V41.557C114.655 40.5512 115.055 39.587 115.766 38.8759C116.477 38.1648 117.441 37.7647 118.447 37.7636H168.715C169.721 37.7647 170.685 38.1648 171.396 38.8759C172.107 39.587 172.507 40.5512 172.508 41.557V91.3359C172.507 92.3416 172.107 93.3058 171.396 94.017C170.685 94.7281 169.721 95.1281 168.715 95.1293H137.246V95.6351Z" fill="#CCCCCC"/>
<path d="M172.761 65.8354H195.701C196.841 65.8341 197.933 65.3807 198.739 64.5748C199.545 63.7688 199.999 62.676 200 61.5362V21.0589C199.999 19.9191 199.545 18.8263 198.739 18.0204C197.933 17.2144 196.841 16.761 195.701 16.7598H154.813C153.673 16.761 152.581 17.2144 151.775 18.0204C150.969 18.8263 150.515 19.9191 150.514 21.0589V37.5106H151.02V21.0589C151.021 20.0532 151.421 19.089 152.132 18.3779C152.843 17.6667 153.807 17.2667 154.813 17.2655H195.701C196.707 17.2667 197.671 17.6667 198.382 18.3779C199.093 19.089 199.493 20.0532 199.494 21.0589V61.5362C199.493 62.5419 199.093 63.5061 198.382 64.2173C197.671 64.9284 196.707 65.3285 195.701 65.3296H172.761V65.8354Z" fill="#CCCCCC"/>
<path d="M133.092 53.8105H72.4594C71.3199 53.8128 70.2277 54.2665 69.4219 55.0722C68.6162 55.878 68.1625 56.9702 68.1602 58.1097V118.169C68.1614 119.309 68.6147 120.401 69.4207 121.207C70.2267 122.013 71.3195 122.467 72.4594 122.468H133.092C134.232 122.467 135.325 122.013 136.131 121.207C136.937 120.401 137.39 119.309 137.392 118.169V58.1097C137.39 56.9699 136.937 55.877 136.131 55.0711C135.325 54.2651 134.232 53.8117 133.092 53.8105ZM136.886 118.169C136.884 119.174 136.484 120.139 135.773 120.85C135.062 121.561 134.098 121.961 133.092 121.962H72.4594C71.4537 121.961 70.4895 121.561 69.7784 120.85C69.0673 120.139 68.6672 119.174 68.666 118.169V58.1097C68.6676 57.1041 69.0677 56.1401 69.7788 55.4291C70.4898 54.718 71.4538 54.3179 72.4594 54.3163H133.092C134.098 54.3176 135.062 54.7176 135.773 55.4287C136.484 56.1399 136.884 57.104 136.886 58.1097V118.169Z" fill="#3F3D56"/>
<path d="M128.318 77.2005H77.2337C76.6971 77.2005 76.1825 76.9874 75.8031 76.608C75.4237 76.2286 75.2106 75.714 75.2106 75.1774C75.2106 74.6409 75.4237 74.1263 75.8031 73.7469C76.1825 73.3674 76.6971 73.1543 77.2337 73.1543H128.318C128.854 73.1543 129.369 73.3674 129.748 73.7469C130.128 74.1263 130.341 74.6409 130.341 75.1774C130.341 75.714 130.128 76.2286 129.748 76.608C129.369 76.9874 128.854 77.2005 128.318 77.2005Z" fill="#CCCCCC"/>
<path d="M113.776 68.6029H91.7749C91.2383 68.6029 90.7237 68.3897 90.3443 68.0103C89.9649 67.6309 89.7518 67.1163 89.7518 66.5798C89.7518 66.0432 89.9649 65.5286 90.3443 65.1492C90.7237 64.7698 91.2383 64.5566 91.7749 64.5566H113.776C114.313 64.5566 114.828 64.7698 115.207 65.1492C115.586 65.5286 115.8 66.0432 115.8 66.5798C115.8 67.1163 115.586 67.6309 115.207 68.0103C114.828 68.3897 114.313 68.6029 113.776 68.6029Z" fill="#671E1E"/>
<path d="M99.1087 89.3392H77.1072C76.5707 89.3392 76.0561 89.1261 75.6767 88.7467C75.2973 88.3673 75.0841 87.8527 75.0841 87.3161C75.0841 86.7795 75.2973 86.2649 75.6767 85.8855C76.0561 85.5061 76.5707 85.293 77.1072 85.293H99.1087C99.6453 85.293 100.16 85.5061 100.539 85.8855C100.919 86.2649 101.132 86.7795 101.132 87.3161C101.132 87.8527 100.919 88.3673 100.539 88.7467C100.16 89.1261 99.6453 89.3392 99.1087 89.3392Z" fill="#CCCCCC"/>
<path d="M99.1087 98.1908H77.1072C76.5707 98.1908 76.0561 97.9776 75.6767 97.5982C75.2973 97.2188 75.0841 96.7042 75.0841 96.1677C75.0841 95.6311 75.2973 95.1165 75.6767 94.7371C76.0561 94.3577 76.5707 94.1445 77.1072 94.1445H99.1087C99.6453 94.1445 100.16 94.3577 100.539 94.7371C100.919 95.1165 101.132 95.6311 101.132 96.1677C101.132 96.7042 100.919 97.2188 100.539 97.5982C100.16 97.9776 99.6453 98.1908 99.1087 98.1908Z" fill="#CCCCCC"/>
<path d="M99.1087 107.042H77.1072C76.5707 107.042 76.0561 106.829 75.6767 106.45C75.2973 106.07 75.0841 105.556 75.0841 105.019C75.0841 104.483 75.2973 103.968 75.6767 103.589C76.0561 103.209 76.5707 102.996 77.1072 102.996H99.1087C99.6453 102.996 100.16 103.209 100.539 103.589C100.919 103.968 101.132 104.483 101.132 105.019C101.132 105.556 100.919 106.07 100.539 106.45C100.16 106.829 99.6453 107.042 99.1087 107.042Z" fill="#CCCCCC"/>
<path d="M126.549 91.0743C128.634 91.0743 130.324 89.384 130.324 87.2989C130.324 85.2138 128.634 83.5234 126.549 83.5234C124.464 83.5234 122.773 85.2138 122.773 87.2989C122.773 89.384 124.464 91.0743 126.549 91.0743Z" fill="#671E1E"/>
<path d="M126.175 88.7386C126.09 88.7387 126.007 88.7113 125.939 88.6603L125.935 88.6571L125.048 87.9784C124.965 87.9148 124.91 87.8208 124.897 87.7171C124.883 87.6134 124.911 87.5086 124.975 87.4256C125.038 87.3426 125.132 87.2883 125.236 87.2746C125.34 87.2609 125.445 87.2889 125.527 87.3526L126.102 87.7933L127.46 86.0215C127.492 85.9804 127.531 85.946 127.576 85.9201C127.621 85.8942 127.67 85.8774 127.721 85.8706C127.773 85.8638 127.825 85.8672 127.875 85.8806C127.925 85.8939 127.972 85.917 128.013 85.9485L128.005 85.9603L128.013 85.9486C128.096 86.0123 128.15 86.1063 128.164 86.2099C128.178 86.3135 128.15 86.4183 128.086 86.5013L126.489 88.5844C126.452 88.6324 126.404 88.6712 126.35 88.6978C126.295 88.7245 126.236 88.7383 126.175 88.7381L126.175 88.7386Z" fill="white"/>
<path d="M30.4009 11.7365C29.2403 11.7364 28.1057 11.3923 27.1407 10.7475C26.1757 10.1027 25.4235 9.18616 24.9794 8.11388C24.5353 7.0416 24.419 5.8617 24.6455 4.72337C24.8719 3.58505 25.4308 2.53944 26.2515 1.71876C27.0722 0.898072 28.1178 0.339181 29.2561 0.112757C30.3944 -0.113667 31.5743 0.00254334 32.6466 0.446696C33.7189 0.890849 34.6354 1.643 35.2802 2.60802C35.925 3.57304 36.2692 4.7076 36.2692 5.86823C36.2674 7.42404 35.6486 8.91562 34.5484 10.0157C33.4483 11.1159 31.9567 11.7347 30.4009 11.7365ZM30.4009 0.505784C29.3403 0.50579 28.3036 0.820297 27.4217 1.40953C26.5399 1.99877 25.8526 2.83627 25.4467 3.81613C25.0408 4.79599 24.9346 5.8742 25.1415 6.91441C25.3485 7.95462 25.8592 8.91011 26.6091 9.66006C27.3591 10.41 28.3146 10.9207 29.3548 11.1276C30.395 11.3345 31.4732 11.2283 32.4531 10.8225C33.4329 10.4166 34.2704 9.72929 34.8597 8.84744C35.4489 7.96559 35.7634 6.92882 35.7634 5.86823C35.7618 4.44651 35.1963 3.08348 34.191 2.07817C33.1857 1.07287 31.8226 0.507385 30.4009 0.505784Z" fill="#CCCCCC"/>
<path d="M29.8445 8.011C29.7181 8.01121 29.5952 7.97034 29.4941 7.89456L29.4878 7.88985L28.1681 6.88034C28.107 6.83348 28.0557 6.77504 28.0172 6.70836C27.9786 6.64168 27.9536 6.56806 27.9435 6.49171C27.9334 6.41536 27.9385 6.33777 27.9584 6.26337C27.9783 6.18897 28.0127 6.11922 28.0595 6.0581C28.1064 5.99698 28.1648 5.94569 28.2315 5.90715C28.2982 5.86861 28.3718 5.84359 28.4481 5.8335C28.5245 5.82342 28.6021 5.82847 28.6765 5.84837C28.7509 5.86827 28.8206 5.90263 28.8817 5.94949L29.7365 6.60498L31.7564 3.96979C31.8033 3.90869 31.8617 3.85742 31.9283 3.8189C31.995 3.78038 32.0686 3.75536 32.1449 3.74528C32.2212 3.7352 32.2988 3.74025 32.3732 3.76015C32.4475 3.78004 32.5172 3.81439 32.5783 3.86123L32.566 3.87876L32.5788 3.86136C32.7021 3.95608 32.7827 4.09584 32.8031 4.24996C32.8234 4.40408 32.7818 4.55997 32.6873 4.68342L30.3114 7.78159C30.2565 7.85298 30.1858 7.91075 30.1049 7.95041C30.024 7.99007 29.9351 8.01056 29.845 8.0103L29.8445 8.011Z" fill="#CCCCCC"/>
<path d="M67.6253 32.2208C66.4647 32.2208 65.3301 31.8766 64.3651 31.2318C63.4001 30.587 62.648 29.6705 62.2038 28.5982C61.7597 27.526 61.6435 26.3461 61.8699 25.2077C62.0963 24.0694 62.6552 23.0238 63.4759 22.2031C64.2966 21.3824 65.3422 20.8236 66.4806 20.5971C67.6189 20.3707 68.7988 20.4869 69.8711 20.9311C70.9433 21.3752 71.8598 22.1274 72.5046 23.0924C73.1494 24.0574 73.4936 25.192 73.4936 26.3526C73.4918 27.9084 72.873 29.4 71.7729 30.5001C70.6727 31.6003 69.1811 32.2191 67.6253 32.2208ZM67.6253 20.9902C66.5647 20.9902 65.528 21.3047 64.6461 21.8939C63.7643 22.4832 63.077 23.3207 62.6711 24.3005C62.2652 25.2804 62.1591 26.3586 62.366 27.3988C62.5729 28.439 63.0836 29.3945 63.8336 30.1444C64.5835 30.8944 65.539 31.4051 66.5792 31.612C67.6194 31.8189 68.6976 31.7127 69.6775 31.3068C70.6574 30.901 71.4949 30.2137 72.0841 29.3318C72.6733 28.45 72.9878 27.4132 72.9878 26.3526C72.9862 24.9309 72.4207 23.5678 71.4154 22.5625C70.4101 21.5572 69.047 20.9918 67.6253 20.9902Z" fill="#CCCCCC"/>
<path d="M67.0689 28.4954C66.9426 28.4956 66.8196 28.4547 66.7186 28.3789L66.7123 28.3742L65.3926 27.3647C65.2692 27.2701 65.1884 27.1303 65.168 26.9761C65.1476 26.8219 65.1894 26.6659 65.284 26.5425C65.3786 26.419 65.5184 26.3382 65.6726 26.3179C65.8268 26.2975 65.9828 26.3392 66.1062 26.4339L66.961 27.0894L68.9809 24.4542C69.0278 24.3931 69.0862 24.3418 69.1528 24.3033C69.2195 24.2648 69.2931 24.2397 69.3694 24.2297C69.4457 24.2196 69.5233 24.2246 69.5976 24.2445C69.672 24.2644 69.7417 24.2988 69.8028 24.3456L69.7905 24.3631L69.8033 24.3457C69.9266 24.4405 70.0072 24.5802 70.0276 24.7343C70.0479 24.8885 70.0062 25.0443 69.9118 25.1678L67.5359 28.266C67.481 28.3374 67.4103 28.3951 67.3294 28.4348C67.2485 28.4744 67.1595 28.4949 67.0695 28.4947L67.0689 28.4954Z" fill="#CCCCCC"/>
<path d="M126.549 99.9259C128.634 99.9259 130.324 98.2356 130.324 96.1504C130.324 94.0653 128.634 92.375 126.549 92.375C124.464 92.375 122.773 94.0653 122.773 96.1504C122.773 98.2356 124.464 99.9259 126.549 99.9259Z" fill="#671E1E"/>
<path d="M126.175 97.5902C126.09 97.5903 126.007 97.5628 125.939 97.5119L125.935 97.5087L125.048 96.83C125.007 96.7985 124.972 96.7592 124.946 96.7143C124.92 96.6695 124.903 96.62 124.897 96.5687C124.89 96.5174 124.893 96.4652 124.907 96.4152C124.92 96.3651 124.943 96.3182 124.975 96.2771C125.006 96.2361 125.045 96.2016 125.09 96.1757C125.135 96.1497 125.185 96.1329 125.236 96.1261C125.287 96.1194 125.339 96.1228 125.389 96.1361C125.44 96.1495 125.486 96.1726 125.527 96.2041L126.102 96.6448L127.46 94.8731C127.492 94.832 127.531 94.7975 127.576 94.7716C127.621 94.7457 127.67 94.7289 127.721 94.7221C127.773 94.7154 127.825 94.7188 127.875 94.7321C127.925 94.7455 127.972 94.7686 128.013 94.8001L128.005 94.8119L128.013 94.8002C128.096 94.8639 128.15 94.9578 128.164 95.0615C128.178 95.1651 128.15 95.2699 128.086 95.3529L126.489 97.4359C126.452 97.4839 126.404 97.5227 126.35 97.5494C126.295 97.5761 126.236 97.5898 126.175 97.5897L126.175 97.5902Z" fill="white"/>
<path d="M126.549 108.795C128.634 108.795 130.324 107.105 130.324 105.02C130.324 102.934 128.634 101.244 126.549 101.244C124.464 101.244 122.773 102.934 122.773 105.02C122.773 107.105 124.464 108.795 126.549 108.795Z" fill="#671E1E"/>
<path d="M126.175 106.459C126.09 106.459 126.007 106.432 125.939 106.381L125.935 106.378L125.048 105.699C124.965 105.635 124.911 105.541 124.897 105.438C124.883 105.334 124.911 105.229 124.975 105.147C125.039 105.064 125.133 105.009 125.236 104.996C125.34 104.982 125.445 105.01 125.528 105.073L126.102 105.514L127.46 103.742C127.492 103.701 127.531 103.667 127.576 103.641C127.621 103.615 127.67 103.598 127.721 103.591C127.773 103.585 127.825 103.588 127.875 103.601C127.925 103.615 127.972 103.638 128.013 103.669L128.005 103.681L128.013 103.669C128.096 103.733 128.15 103.827 128.164 103.931C128.178 104.034 128.15 104.139 128.086 104.222L126.489 106.305C126.452 106.353 126.404 106.392 126.35 106.419C126.296 106.445 126.236 106.459 126.175 106.459L126.175 106.459Z" fill="white"/>
<path d="M102.781 48.6583C98.7984 48.5904 96.9885 45.5686 96.9886 42.7896C96.9889 40.0106 98.799 36.9892 102.773 36.9219H102.781C106.756 36.9897 108.566 40.0115 108.566 42.7905C108.566 45.5694 106.755 48.591 102.781 48.6583ZM102.777 37.4277C99.1477 37.4911 97.4946 40.2512 97.4944 42.7896C97.4942 45.3291 99.1486 48.0906 102.781 48.1525C106.405 48.091 108.06 45.3299 108.06 42.7905C108.06 40.2521 106.407 37.492 102.777 37.4277Z" fill="#671E1E"/>
<path d="M104.094 43.1092C105.109 44.8727 102.323 45.5615 101.257 44.4991L101.524 43.9285C103.257 45.4257 104.784 42.8324 102.137 43.0789V42.4537C104.561 42.6492 103.199 40.2089 101.584 41.6525L101.324 41.082C102.64 39.716 105.595 41.3678 103.509 42.7328C103.741 42.7873 103.948 42.9202 104.094 43.1092Z" fill="#671E1E"/>
<path d="M138.435 32.2208C137.274 32.2208 136.14 31.8766 135.175 31.2318C134.209 30.587 133.457 29.6705 133.013 28.5982C132.569 27.526 132.453 26.3461 132.679 25.2077C132.906 24.0694 133.465 23.0238 134.285 22.2031C135.106 21.3824 136.152 20.8236 137.29 20.5971C138.428 20.3707 139.608 20.4869 140.68 20.9311C141.753 21.3752 142.669 22.1274 143.314 23.0924C143.959 24.0574 144.303 25.192 144.303 26.3526C144.301 27.9084 143.682 29.4 142.582 30.5001C141.482 31.6003 139.991 32.2191 138.435 32.2208ZM138.435 20.9902C137.374 20.9902 136.337 21.3047 135.455 21.8939C134.574 22.4832 133.886 23.3207 133.48 24.3005C133.075 25.2804 132.968 26.3586 133.175 27.3988C133.382 28.439 133.893 29.3945 134.643 30.1444C135.393 30.8944 136.348 31.4051 137.389 31.612C138.429 31.8189 139.507 31.7127 140.487 31.3068C141.467 30.901 142.304 30.2137 142.893 29.3318C143.483 28.45 143.797 27.4132 143.797 26.3526C143.796 24.9309 143.23 23.5678 142.225 22.5625C141.219 21.5572 139.856 20.9918 138.435 20.9902Z" fill="#CCCCCC"/>
<path d="M140.064 27.6691H139.451V28.5128H138.687V27.6691H136.805V27.0864L138.826 24.1914H139.451V27.0562H140.064V27.6691ZM138.687 27.0562V25.4113L137.546 27.0562H138.687Z" fill="#CCCCCC"/>
<path d="M175.257 11.7365C174.096 11.7364 172.962 11.3923 171.997 10.7474C171.032 10.1026 170.28 9.18614 169.835 8.11386C169.391 7.04158 169.275 5.86168 169.502 4.72336C169.728 3.58504 170.287 2.53942 171.108 1.71874C171.928 0.898065 172.974 0.339176 174.112 0.112754C175.251 -0.113667 176.43 0.00254711 177.503 0.446701C178.575 0.890855 179.491 1.643 180.136 2.60802C180.781 3.57305 181.125 4.70761 181.125 5.86823C181.123 7.42404 180.505 8.91563 179.405 10.0158C178.304 11.1159 176.813 11.7347 175.257 11.7365ZM175.257 0.505785C174.196 0.505798 173.16 0.82031 172.278 1.40955C171.396 1.99879 170.709 2.83629 170.303 3.81615C169.897 4.79601 169.791 5.87422 169.998 6.91443C170.205 7.95464 170.715 8.91012 171.465 9.66007C172.215 10.41 173.171 10.9207 174.211 11.1276C175.251 11.3345 176.329 11.2283 177.309 10.8225C178.289 10.4166 179.126 9.72928 179.716 8.84743C180.305 7.96559 180.619 6.92882 180.619 5.86823C180.618 4.4465 180.052 3.08347 179.047 2.07816C178.042 1.07286 176.679 0.507378 175.257 0.505785Z" fill="#CCCCCC"/>
<path d="M176.131 5.41642C176.334 5.52868 176.501 5.69729 176.61 5.90195C176.727 6.12348 176.785 6.37089 176.78 6.6211C176.786 6.88408 176.718 7.14345 176.586 7.37076C176.454 7.58998 176.259 7.7652 176.028 7.87444C175.764 7.99839 175.475 8.05966 175.184 8.05349C174.911 8.05325 174.64 8.00708 174.383 7.91693C174.144 7.83965 173.923 7.71477 173.734 7.54982L173.995 6.97921C174.334 7.25919 174.757 7.41736 175.196 7.42843C175.422 7.4439 175.645 7.37098 175.818 7.22506C175.958 7.06524 176.035 6.85975 176.034 6.64732C176.033 6.43488 175.954 6.2302 175.812 6.07186C175.733 5.99839 175.64 5.94148 175.538 5.90449C175.437 5.86749 175.329 5.85114 175.221 5.8564C175.056 5.85533 174.893 5.88733 174.741 5.95049C174.591 6.01321 174.457 6.10737 174.347 6.2266H173.873V3.68359H176.58V4.29051H174.638V5.46791C174.868 5.31496 175.139 5.23657 175.415 5.24342C175.664 5.23817 175.911 5.29777 176.131 5.41642Z" fill="#CCCCCC"/>
<path d="M37.477 131.718C37.3235 131.38 37.2461 131.011 37.2503 130.64C37.2545 130.268 37.3401 129.902 37.5011 129.567C37.6622 129.231 37.8948 128.936 38.1825 128.7C38.4702 128.465 38.806 128.295 39.1663 128.204L39.9329 119.199L43.6199 122.108L42.3266 130.213C42.4404 130.828 42.3245 131.464 42.0009 132C41.6772 132.535 41.1683 132.934 40.5705 133.119C39.9727 133.305 39.3276 133.265 38.7575 133.007C38.1873 132.748 37.7317 132.29 37.477 131.718Z" fill="#FFB7B7"/>
<path d="M39.8482 127.258C39.5829 127.223 39.3384 127.095 39.1579 126.898C38.9773 126.7 38.8722 126.445 38.861 126.178L38.4342 115.959C38.2808 112.286 39.0283 108.632 40.6115 105.314L44.3967 97.3825C44.6503 96.9055 45.014 96.4958 45.4577 96.1875C45.9013 95.8793 46.4121 95.6813 46.9477 95.61C47.4675 95.5367 47.9973 95.5902 48.492 95.7659C48.9867 95.9415 49.4316 96.2342 49.7888 96.6188C49.9701 96.8125 50.1329 97.0226 50.2752 97.2464C50.5608 97.7097 50.7261 98.2369 50.7562 98.7803C50.7864 99.3237 50.6803 99.866 50.4477 100.358L44.6435 116.214L44.1969 126.544C44.1901 126.701 44.1511 126.854 44.0823 126.995C44.0135 127.136 43.9163 127.261 43.797 127.362C43.6776 127.464 43.5385 127.539 43.3886 127.584C43.2386 127.63 43.0808 127.644 42.9253 127.625L39.8633 127.26L39.8482 127.258Z" fill="#EC770E"/>
<path d="M28.9888 171.905L31.8278 173.151L37.9852 162.794L33.7953 160.955L28.9888 171.905Z" fill="#FFB7B7"/>
<path d="M28.6715 170.66L34.2624 173.114C34.7303 173.32 35.1534 173.615 35.5071 173.984C35.8607 174.353 36.1383 174.788 36.3239 175.264C36.5095 175.74 36.5995 176.248 36.5888 176.759C36.5781 177.27 36.4669 177.773 36.2615 178.241L36.2106 178.357L27.0568 174.339L28.6715 170.66Z" fill="#232323"/>
<path d="M67.1025 175.351H70.2029L71.6778 163.393L67.102 163.393L67.1025 175.351Z" fill="#FFB7B7"/>
<path d="M66.3117 174.34L72.4174 174.34C72.9284 174.34 73.4347 174.44 73.9068 174.636C74.3789 174.832 74.8078 175.118 75.1691 175.479C75.5305 175.841 75.8171 176.27 76.0126 176.742C76.2082 177.214 76.3088 177.72 76.3088 178.231V178.357L66.3119 178.358L66.3117 174.34Z" fill="#232323"/>
<path d="M35.8751 171.952C35.7558 171.952 35.6373 171.933 35.5239 171.897L30.2669 170.207C29.983 170.114 29.7466 169.914 29.6083 169.65C29.4699 169.385 29.4407 169.077 29.5268 168.791L46.9599 113.277L60.0179 110.717L60.0638 110.792C68.6967 124.839 71.5783 146.298 73.4064 169.034C73.4288 169.331 73.3346 169.625 73.1439 169.854C72.9531 170.082 72.6808 170.228 72.3847 170.259L66.6375 170.833C66.3693 170.862 66.0999 170.793 65.8778 170.64C65.6557 170.487 65.4955 170.26 65.4261 169.999L54.9028 132.772C54.8822 132.696 54.8384 132.629 54.7776 132.579C54.7168 132.529 54.642 132.499 54.5636 132.493C54.4851 132.488 54.4068 132.507 54.3396 132.548C54.2724 132.588 54.2195 132.649 54.1884 132.722L36.9171 171.264C36.8299 171.468 36.6847 171.642 36.4994 171.764C36.3142 171.887 36.0971 171.952 35.8751 171.952Z" fill="#232323"/>
<path d="M53.7065 91.0475C57.1369 91.0475 59.9178 88.2666 59.9178 84.8362C59.9178 81.4059 57.1369 78.625 53.7065 78.625C50.2761 78.625 47.4952 81.4059 47.4952 84.8362C47.4952 88.2666 50.2761 91.0475 53.7065 91.0475Z" fill="#FFB7B7"/>
<path d="M45.8491 114.922L45.8065 114.833C45.7776 114.772 42.9159 108.701 43.1822 101.699C43.2704 99.4005 44.2335 97.2227 45.8746 95.611C47.5156 93.9994 49.7105 93.0757 52.0102 93.0291C54.1296 92.9876 56.1956 93.6953 57.8444 95.0276C59.4932 96.3598 60.619 98.2312 61.0236 100.312C61.8211 104.383 61.8011 108.239 60.9642 111.773L60.9456 111.851L60.8664 111.867L45.8491 114.922Z" fill="#EC770E"/>
<path d="M77.5171 123.683C77.1493 123.629 76.7979 123.495 76.4877 123.29C76.1774 123.085 75.9159 122.815 75.7214 122.498C75.527 122.181 75.4044 121.825 75.3623 121.456C75.3201 121.086 75.3595 120.712 75.4776 120.36L68.3234 114.839L72.7653 113.314L78.8781 118.791C79.4571 119.029 79.9289 119.471 80.2039 120.033C80.479 120.595 80.5383 121.239 80.3705 121.842C80.2027 122.445 79.8196 122.965 79.2937 123.305C78.7678 123.644 78.1356 123.779 77.5171 123.683Z" fill="#FFB7B7"/>
<path d="M59.9605 111.512L59.944 111.485L52.402 99.2712C52.1383 98.7997 51.9909 98.2721 51.972 97.7322C51.9532 97.1923 52.0634 96.6557 52.2935 96.167C52.5134 95.6903 52.8453 95.2738 53.2609 94.953C53.6765 94.6323 54.1635 94.4168 54.6804 94.3249C54.9412 94.2773 55.2059 94.2543 55.4711 94.2559C56.0152 94.2667 56.548 94.4132 57.0212 94.6822C57.4943 94.9512 57.8928 95.334 58.1804 95.7961L68.366 109.263L76.8078 115.233C76.9358 115.324 77.0436 115.44 77.1247 115.574C77.2058 115.708 77.2582 115.857 77.2789 116.013C77.2995 116.168 77.2879 116.326 77.2447 116.476C77.2015 116.627 77.1276 116.767 77.0277 116.888L75.0624 119.264C74.8906 119.473 74.6498 119.614 74.3833 119.661C74.1169 119.708 73.8424 119.658 73.6095 119.52L59.9605 111.512Z" fill="#EC770E"/>
<path d="M52.5957 84.4514C53.0535 83.6984 54.0637 83.4856 54.9408 83.5715C55.8179 83.6574 56.6708 83.9657 57.5521 83.9589C59.9991 83.9399 61.8879 80.9575 60.8591 78.7372C60.0154 76.9164 57.9082 76.1168 56.002 75.4893C52.0052 74.1735 47.4142 72.9093 43.7874 75.0427C42.6316 75.7427 41.6837 76.7385 41.0415 77.9273C40.3994 79.1162 40.0862 80.4549 40.1345 81.8052C40.216 83.4842 40.859 85.2088 40.3152 86.7994C39.6878 88.6344 37.6986 89.6189 35.8188 90.0951C32.5235 90.93 29.049 90.7955 25.7331 91.5443C22.4171 92.293 19.0192 94.2812 18.1254 97.5611C17.5383 99.7154 18.1509 102.035 19.1654 104.024C20.2005 106.053 21.639 107.85 23.3928 109.304C25.1465 110.758 27.1786 111.838 29.3647 112.48C31.5507 113.121 33.8446 113.309 36.1059 113.033C38.3672 112.756 40.5483 112.021 42.5156 110.873C46.5243 108.532 49.4185 104.576 51.1439 100.266C52.1222 97.7523 52.8109 95.1352 53.1968 92.4654C53.5832 89.9662 53.2553 87.4407 52.5554 85.0106C52.5223 84.9198 52.5088 84.8231 52.5157 84.7267C52.5227 84.6303 52.5499 84.5365 52.5957 84.4514Z" fill="#232323"/>
<path d="M96.6042 178.449H0.252891C0.18582 178.449 0.121496 178.422 0.0740698 178.375C0.0266436 178.328 0 178.263 0 178.196C0 178.129 0.0266436 178.065 0.0740698 178.017C0.121496 177.97 0.18582 177.943 0.252891 177.943H96.6042C96.6713 177.943 96.7356 177.97 96.7831 178.017C96.8305 178.065 96.8571 178.129 96.8571 178.196C96.8571 178.263 96.8305 178.328 96.7831 178.375C96.7356 178.422 96.6713 178.449 96.6042 178.449Z" fill="#3F3D56"/>
</g>
<defs>
<clipPath id="clip0_671_9592">
<rect width="200" height="178.449" fill="white"/>
</clipPath>
</defs>
</svg>
