<svg width="68" height="80" viewBox="0 0 68 80" fill="none" xmlns="http://www.w3.org/2000/svg">
<g clipPath="url(#clip0_109_5318)">
<path d="M48.3038 67.1345L48.9739 80C48.9739 80 20.6304 53.0234 17.0993 45.1303C13.5682 37.2373 20.215 17.7124 20.215 17.7124L34.9625 25.8132L48.3038 67.1345Z" fill="#9F616A"/>
<path d="M4.84445 12.3119L0.482517 12.7273C0.482517 12.7273 -1.80232 17.7124 5.25988 18.1278L4.84445 12.3119Z" fill="#9F616A"/>
<path d="M4.84445 19.9972L0.482517 20.4126C0.482517 20.4126 -1.80232 25.3977 5.25988 25.8131L4.84445 19.9972Z" fill="#9F616A"/>
<path d="M4.84445 28.3057L0.482517 28.7211C0.482517 28.7211 -1.80232 33.7062 5.25988 34.1216L4.84445 28.3057Z" fill="#9F616A"/>
<path d="M6.09055 36.6141L1.72861 37.0296C1.72861 37.0296 -0.556223 42.0146 6.50598 42.4301L6.09055 36.6141Z" fill="#9F616A"/>
<path d="M2.7207 14.3146H3.05168V5.24768C3.05168 4.55855 3.18741 3.87616 3.45113 3.23948C3.71485 2.6028 4.10139 2.0243 4.58868 1.53701C5.07597 1.04972 5.65447 0.663179 6.29115 0.399458C6.92782 0.135737 7.61021 5.27986e-07 8.29935 0H27.5088C28.1979 -1.40792e-06 28.8803 0.135733 29.517 0.399452C30.1537 0.663171 30.7322 1.04971 31.2195 1.537C31.7068 2.02429 32.0933 2.60279 32.357 3.23947C32.6208 3.87614 32.7565 4.55853 32.7565 5.24766V54.9894C32.7565 55.6785 32.6208 56.3609 32.357 56.9976C32.0933 57.6343 31.7068 58.2128 31.2195 58.7001C30.7322 59.1874 30.1537 59.5739 29.517 59.8376C28.8803 60.1013 28.198 60.2371 27.5088 60.2371H8.29937C6.9076 60.2371 5.57283 59.6842 4.5887 58.7001C3.60457 57.716 3.05169 56.3812 3.05168 54.9894V20.7686H2.7207V14.3146Z" fill="#3F3D56"/>
<path d="M8.08786 1.36524H10.5953C10.48 1.64795 10.436 1.95467 10.4672 2.2584C10.4983 2.56212 10.6037 2.85353 10.774 3.10694C10.9443 3.36035 11.1743 3.56799 11.4438 3.71157C11.7132 3.85514 12.0138 3.93025 12.3192 3.93028H23.324C23.6293 3.93025 23.93 3.85515 24.1994 3.71157C24.4689 3.56799 24.6989 3.36035 24.8692 3.10694C25.0395 2.85353 25.1449 2.56213 25.176 2.2584C25.2072 1.95467 25.1632 1.64794 25.0478 1.36523H27.3898C28.4292 1.36523 29.426 1.77812 30.1609 2.51305C30.8958 3.24799 31.3087 4.24478 31.3087 5.28413V54.9529C31.3087 55.4675 31.2074 55.9771 31.0104 56.4526C30.8135 56.928 30.5248 57.3601 30.1609 57.724C29.797 58.0879 29.365 58.3765 28.8895 58.5735C28.4141 58.7704 27.9045 58.8718 27.3898 58.8718H8.08786C7.57322 58.8718 7.06362 58.7704 6.58815 58.5735C6.11269 58.3765 5.68067 58.0879 5.31677 57.724C4.95286 57.3601 4.6642 56.9281 4.46725 56.4526C4.27031 55.9771 4.16895 55.4675 4.16895 54.9529V5.28414C4.16895 4.7695 4.27031 4.2599 4.46725 3.78444C4.6642 3.30898 4.95286 2.87696 5.31677 2.51306C5.68067 2.14915 6.11269 1.86049 6.58815 1.66354C7.06362 1.4666 7.57322 1.36524 8.08786 1.36524Z" fill="white"/>
<path d="M21.8743 15.28H13.6035V17.2758H21.8743V15.28Z" fill="#EC770E"/>
<path d="M22.2683 23.856H13.21V25.8518H22.2683V23.856Z" fill="#E5E5E5"/>
<path d="M27.8472 28.1432H7.62988V30.1391H27.8472V28.1432Z" fill="#E5E5E5"/>
<path d="M27.8472 32.4305H7.62988V34.4263H27.8472V32.4305Z" fill="#E5E5E5"/>
<path d="M67.8701 73.8353L44.621 47.3113L43.7902 30.279L35.0663 15.7392L32.5738 9.50781C32.5738 9.50781 26.7578 10.1309 31.5352 21.9705L33.5085 28.3057C31.7297 32.1368 30.8082 36.3099 30.8082 40.5338V55.0509C30.8082 58.4692 47.0978 77.0888 48.994 79.933L67.8701 73.8353Z" fill="#9F616A"/>
<path opacity="0.2" d="M33.2575 16.9712L34.9918 16.1188L34.9327 15.9985L33.3303 16.7861L30.9113 10.4441L30.7861 10.4919L33.2575 16.9712Z" fill="black"/>
<path opacity="0.2" d="M0.505314 12.6642L0.458984 12.79L3.02818 13.7364L3.07451 13.6106L0.505314 12.6642Z" fill="black"/>
<path opacity="0.2" d="M0.505314 20.4372L0.458984 20.5629L3.02818 21.5093L3.07451 21.3836L0.505314 20.4372Z" fill="black"/>
<path opacity="0.2" d="M0.505314 28.7461L0.458984 28.8719L3.02818 29.8183L3.07451 29.6925L0.505314 28.7461Z" fill="black"/>
<path opacity="0.2" d="M1.85192 37.0575L1.79395 37.1783L3.04478 37.7787L3.10276 37.6579L1.85192 37.0575Z" fill="black"/>
<path d="M17.7486 51.6503C20.9482 51.6503 23.5421 49.0565 23.5421 45.8568C23.5421 42.6572 20.9482 40.0634 17.7486 40.0634C14.5489 40.0634 11.9551 42.6572 11.9551 45.8568C11.9551 49.0565 14.5489 51.6503 17.7486 51.6503Z" fill="#EC770E"/>
<path d="M17.1968 48.3025L15.4629 46.0729L16.4712 45.2886L17.2922 46.3442L20.0659 43.4163L20.9934 44.295L17.1968 48.3025Z" fill="white"/>
</g>
<defs>
<clipPath id="clip0_109_5318">
<rect width="67.7404" height="80" fill="white" transform="translate(0.129883)"/>
</clipPath>
</defs>
</svg>
