<svg width="112" height="81" viewBox="0 0 112 81" fill="none" xmlns="http://www.w3.org/2000/svg">
<g clipPath="url(#clip0_386_1720)">
<path d="M14.3307 13.2356C17.8475 13.2356 20.6984 10.3846 20.6984 6.86778C20.6984 3.35095 17.8475 0.5 14.3307 0.5C10.8138 0.5 7.96289 3.35095 7.96289 6.86778C7.96289 10.3846 10.8138 13.2356 14.3307 13.2356Z" fill="#FF6584"/>
<path d="M89.1239 65.6659C86.904 65.6657 84.7561 64.8782 83.0622 63.4436C81.3682 62.0089 80.2378 60.02 79.8722 57.8304L79.8646 57.7841L79.8945 57.7482C80.3923 57.1513 80.8106 56.4923 81.1389 55.7878C80.776 56.1837 80.3649 56.5325 79.9152 56.8261L79.7651 56.9259L79.7565 56.7459C79.7489 56.5906 79.7451 56.4362 79.7451 56.2872C79.7444 55.4115 79.8652 54.5399 80.1042 53.6974C81.1931 49.8703 81.3793 45.7606 80.6577 41.4825C80.5344 40.7489 80.4724 40.0064 80.4725 39.2625C80.4736 36.1191 81.5936 33.0786 83.632 30.6857C85.6705 28.2927 88.4941 26.7035 91.5975 26.2026C94.7008 25.7017 97.881 26.3218 100.569 27.9519C103.257 29.582 105.276 32.1157 106.266 35.0992L106.297 35.1901L106.208 35.2261C105.541 35.5083 104.834 35.6837 104.113 35.7459C104.875 35.9213 105.657 35.9964 106.439 35.9693L106.521 35.9665L106.541 36.0467C106.804 37.0986 106.936 38.1785 106.936 39.2625L106.935 39.3799C106.933 40.2101 107.105 41.0314 107.442 41.7904C107.778 42.5494 108.27 43.229 108.887 43.7849C109.889 44.6965 110.681 45.8143 111.21 47.0614C111.739 48.3085 111.991 49.6554 111.949 51.0092C111.908 52.3631 111.573 53.6919 110.969 54.9042C110.365 56.1166 109.505 57.1836 108.449 58.032L108.4 58.0715L108.343 58.0454C107.135 57.4974 106.255 56.9004 105.612 56.1879C106.041 57.1023 106.619 57.9393 107.321 58.6649L107.412 58.7585L107.299 58.8243C105.865 59.6604 104.235 60.1007 102.575 60.1L102.528 60.0999C102.511 60.0998 102.494 60.0998 102.477 60.0998C99.9382 60.0998 97.5315 61.0817 95.867 62.7983C94.9905 63.7011 93.9426 64.4199 92.7847 64.9123C91.6268 65.4047 90.3822 65.6609 89.1239 65.6659Z" fill="#F2F2F2"/>
<path d="M85.8047 80.4432C85.764 80.4432 85.7247 80.4285 85.6939 80.4017C85.6632 80.375 85.6431 80.3381 85.6374 80.2978C85.6302 80.2473 84.9258 75.1671 85.5584 68.4153C86.1426 62.1799 88.0188 53.1987 93.6392 45.8226C93.6527 45.8049 93.6695 45.7901 93.6887 45.7789C93.708 45.7677 93.7292 45.7604 93.7512 45.7574C93.7732 45.7545 93.7956 45.7559 93.8171 45.7615C93.8386 45.7672 93.8588 45.7771 93.8765 45.7906C93.8942 45.804 93.909 45.8209 93.9202 45.8401C93.9314 45.8593 93.9386 45.8805 93.9416 45.9025C93.9446 45.9246 93.9432 45.947 93.9375 45.9685C93.9318 45.99 93.922 46.0101 93.9085 46.0278C88.3367 53.3402 86.4756 62.2555 85.8955 68.4469C85.2665 75.1594 85.9654 80.1999 85.9725 80.2501C85.9759 80.2741 85.9741 80.2986 85.9672 80.3218C85.9604 80.3451 85.9486 80.3666 85.9327 80.3849C85.9168 80.4032 85.8971 80.4179 85.875 80.428C85.853 80.438 85.829 80.4432 85.8047 80.4432Z" fill="#3F3D56"/>
<path d="M88.6142 55.5759C88.5785 55.5759 88.5436 55.5646 88.5147 55.5436C88.4857 55.5226 88.4642 55.493 88.4531 55.459C88.4421 55.425 88.4421 55.3884 88.4531 55.3544C88.4641 55.3204 88.4857 55.2907 88.5146 55.2697C90.1161 54.1857 91.8461 53.305 93.6649 52.6479C96.5064 51.6076 100.827 50.6645 105.276 52.0803C105.297 52.087 105.317 52.0978 105.334 52.1122C105.351 52.1265 105.365 52.144 105.375 52.1638C105.385 52.1835 105.391 52.2051 105.393 52.2272C105.395 52.2494 105.393 52.2717 105.386 52.2929C105.379 52.3141 105.368 52.3337 105.354 52.3507C105.34 52.3677 105.322 52.3817 105.302 52.3919C105.282 52.4021 105.261 52.4083 105.239 52.4102C105.217 52.4121 105.194 52.4096 105.173 52.4028C100.816 51.0162 96.5733 51.9437 93.7813 52.9658C91.9917 53.6117 90.2894 54.4776 88.7136 55.5436C88.6847 55.5646 88.6499 55.5759 88.6142 55.5759Z" fill="#3F3D56"/>
<path d="M19.844 67.8725C18.265 67.8696 15.7789 67.997 14.4247 68.712C13.3841 69.2616 12.4364 69.9715 11.6164 70.8156C11.3003 71.1422 11.001 71.4846 10.7195 71.8415C9.94071 69.1773 9.85007 66.3591 10.456 63.6503C10.4986 63.468 10.4846 63.277 10.4159 63.1028C10.3471 62.9286 10.2269 62.7796 10.0713 62.6755C9.91561 62.5714 9.73192 62.5172 9.54469 62.5202C9.35746 62.5232 9.17559 62.5832 9.02334 62.6922C6.82342 64.2965 5.41695 67.0153 5.0749 69.7658C4.63909 73.2702 5.6653 76.8017 7.09157 80.0334L7.09113 80.035C7.08849 80.0496 7.08449 80.0654 7.08056 80.0812C7.07528 80.105 7.0687 80.1287 7.06342 80.1525C7.05414 80.1934 7.04364 80.2356 7.03436 80.2765L7.2653 80.266C7.27852 80.2726 7.29173 80.2779 7.30487 80.2845H13.0891C13.1658 80.201 13.2372 80.1128 13.303 80.0205C13.943 79.1429 14.2083 77.9539 14.5316 76.8809C14.7658 76.1041 15.0587 75.3461 15.4079 74.6137C16.2871 72.7739 17.5002 71.1132 18.9856 69.7163C19.0331 69.6714 19.082 69.6265 19.1308 69.583C19.3796 69.3542 19.7652 69.0482 20.1421 68.7609C20.2244 68.6983 20.2851 68.6115 20.3155 68.5126C20.3459 68.4138 20.3446 68.3079 20.3117 68.2098C20.2788 68.1117 20.216 68.0264 20.1321 67.9659C20.0482 67.9054 19.9475 67.8727 19.844 67.8725Z" fill="#F2F2F2"/>
<path d="M58.8987 13.3335C59.0348 13.714 59.0159 14.1326 58.8461 14.4993C58.6763 14.8659 58.3692 15.1511 57.9911 15.2935C57.9074 15.3247 57.8212 15.3485 57.7333 15.3645L56.8592 20.7169L54.8086 18.8236L55.9531 14.0311C55.9107 13.6273 56.029 13.223 56.2823 12.9056C56.5357 12.5883 56.9037 12.3834 57.3069 12.3353C57.6461 12.2964 57.9885 12.374 58.2777 12.5554C58.567 12.7368 58.786 13.0112 58.8987 13.3335Z" fill="#9E616A"/>
<path d="M43.7656 25.4615C43.7656 25.4615 45.3571 23.3588 51.1323 23.4164L54.4103 22.2254L55.1594 15.3582L57.7814 15.9824L57.4069 24.4728L51.7882 27.7191L44.4216 29.2174L43.7656 25.4615Z" fill="#EC770E"/>
<path d="M34.8911 77.2311L36.404 77.8757L39.6108 72.3472L37.3779 71.3957L34.8911 77.2311Z" fill="#9E616A"/>
<path d="M47.393 78.6627L49.0373 78.6626L49.8197 72.3195L47.3926 72.3196L47.393 78.6627Z" fill="#9E616A"/>
<path d="M47.335 80.3781L52.392 80.3779V80.314C52.392 79.7919 52.1846 79.2913 51.8155 78.9222C51.4463 78.5531 50.9457 78.3457 50.4237 78.3457L49.4999 77.6449L47.7764 78.3458L47.335 78.3458L47.335 80.3781Z" fill="#2F2E41"/>
<path d="M33.9717 78.3292L38.6238 80.3117L38.6489 80.2529C38.8535 79.7727 38.859 79.2308 38.6642 78.7465C38.4693 78.2622 38.0901 77.8752 37.6099 77.6705L37.0348 76.6636L35.1745 76.6327L34.7684 76.4596L33.9717 78.3292Z" fill="#2F2E41"/>
<path d="M49.0065 41.1223L51.5057 56.3406L50.8255 58.6083L51.7181 60.2145L50.4074 74.3198L50.9394 75.4911L49.4529 76.4078H46.4281L46.2676 63.6382L45.5204 61.7634V60.7301L43.9993 52.9435L43.7193 61.8504L43.2768 63.7282L43.6485 65.0652L43.1629 66.0019L39.0012 74.9381H35.6094L35.8717 72.9172C35.264 72.6095 36.7841 71.7103 36.9302 71.045L36.4307 69.9212L36.9302 67.7986L37.3881 63.651L36.9052 54.8962L37.1324 43.1066L41.1002 40.0725L49.0065 41.1223Z" fill="#2F2E41"/>
<path d="M42.9199 21.0808C44.8129 21.0808 46.3476 19.5462 46.3476 17.6531C46.3476 15.7601 44.8129 14.2255 42.9199 14.2255C41.0268 14.2255 39.4922 15.7601 39.4922 17.6531C39.4922 19.5462 41.0268 21.0808 42.9199 21.0808Z" fill="#9E616A"/>
<path d="M36.9638 47.4349C37.0599 47.2627 37.117 47.0715 37.1312 46.8748C37.1454 46.6781 37.1163 46.4807 37.0459 46.2965C36.9756 46.1123 36.8657 45.9458 36.724 45.8086C36.5823 45.6715 36.4123 45.567 36.2259 45.5027L36.2178 40.7094L34.1406 42.0841L34.4668 46.4252C34.3795 46.7455 34.4127 47.0868 34.5601 47.3842C34.7076 47.6817 34.959 47.9147 35.2668 48.0392C35.5746 48.1636 35.9174 48.1709 36.2301 48.0595C36.5429 47.9481 36.8039 47.7259 36.9638 47.4349Z" fill="#9E616A"/>
<path d="M36.7721 26.2258L35.8442 25.3314L35.1625 25.8234C35.1625 25.8234 34.4918 26.6282 33.9553 29.0427C33.4187 31.4571 33.9553 44.7367 33.9553 44.7367L36.9063 44.3343L36.5039 37.3592L37.7111 31.4571L36.7721 26.2258Z" fill="#EC770E"/>
<path d="M35.4019 25.5495L38.5282 24.0561L40.6508 22.0874L44.5214 22.0584L45.77 23.6816L49.0663 24.8013L48.5169 36.1674L48.8915 37.0414C48.8915 37.0414 48.6305 37.2772 48.5113 37.409C48.392 37.5408 48.676 38.6447 48.676 38.6447L48.8361 39.8456L48.392 40.1629L48.9694 40.8448L49.1127 41.9198C49.1127 41.9198 39.0348 39.415 37.1305 43.5645C37.0299 43.7838 37.2777 41.6411 37.2777 41.6411L37.5254 40.0725L37.2796 38.6646L36.9051 38.29L37.5333 37.6618L37.1305 34.6809L35.4019 25.5495Z" fill="#EC770E"/>
<path d="M68.034 77.1636H66.1788L65.2959 70.0076H68.034V77.1636Z" fill="#FFB6B6"/>
<path d="M69.0133 80.3781H67.6829L67.4454 79.122L66.8372 80.3781H63.3084C63.1393 80.3781 62.9746 80.3241 62.8383 80.2239C62.7021 80.1236 62.6014 79.9824 62.5511 79.821C62.5007 79.6595 62.5033 79.4861 62.5585 79.3262C62.6137 79.1663 62.7185 79.0283 62.8577 78.9321L65.6756 76.986V75.7161L68.6396 75.893L69.0133 80.3781Z" fill="#2F2E41"/>
<path d="M86.0772 73.4827L84.4814 74.429L80.0718 68.7244L82.427 67.3277L86.0772 73.4827Z" fill="#FFB6B6"/>
<path d="M88.5594 75.748L87.415 76.4267L86.57 75.4674L86.6876 76.8581L83.6525 78.658C83.507 78.7443 83.3378 78.7819 83.1694 78.7651C83.0011 78.7484 82.8425 78.6783 82.7169 78.5651C82.5912 78.4519 82.505 78.3015 82.4709 78.1358C82.4368 77.9701 82.4565 77.7979 82.5272 77.6442L83.9583 74.5329L83.3105 73.4406L85.9501 72.0809L88.5594 75.748Z" fill="#2F2E41"/>
<path d="M67.2062 31.4087L66.3047 37.1562L74.8696 37.2688L73.7426 31.7468L67.2062 31.4087Z" fill="#FFB6B6"/>
<path d="M66.2715 37.0835L63.8252 43.0164L63.647 58.8822L65.7345 74.0309H68.0448L68.9913 59.1292L71.3195 48.9329L73.6156 59.5972L80.7551 70.0354H84.2633L77.8134 58.5328L77.0669 46.0028C77.0669 46.0028 77.5322 40.6872 75.1511 37.5506L74.5715 35.8762L66.2715 37.0835Z" fill="#2F2E41"/>
<path d="M78.2542 41.4151C78.0158 41.3501 77.7944 41.2336 77.6059 41.0738C77.4173 40.9141 77.266 40.7149 77.1627 40.4903C77.0595 40.2658 77.0067 40.0213 77.0081 39.7741C77.0095 39.5269 77.0651 39.2831 77.171 39.0597L73.5273 27.1806L76.2074 26.6494L79.5398 38.2934C79.9033 38.4961 80.1797 38.8251 80.3168 39.218C80.4539 39.6109 80.4421 40.0405 80.2836 40.4253C80.1251 40.8101 79.831 41.1233 79.457 41.3058C79.083 41.4882 78.655 41.5271 78.2542 41.4151Z" fill="#FFB6B6"/>
<path d="M73.9317 35.5817L67.5283 32.5959C67.3595 32.5924 67.1966 32.5335 67.0645 32.4285C66.9323 32.3235 66.8382 32.1781 66.7966 32.0145C66.4801 30.7614 65.7838 29.3684 66.1531 26.1157C66.226 25.4855 66.4246 24.8764 66.737 24.3244C67.0494 23.7723 67.4694 23.2886 67.9721 22.9017C68.4748 22.5148 69.05 22.2326 69.6636 22.072C70.2773 21.9113 70.9169 21.8753 71.5447 21.9661C72.2069 22.061 72.8417 22.2947 73.4072 22.6521C73.9728 23.0095 74.4564 23.4824 74.8263 24.0398C75.1962 24.5972 75.4441 25.2266 75.5537 25.8865C75.6633 26.5465 75.6321 27.2222 75.4622 27.8692C74.719 30.6915 74.7987 33.7094 74.714 34.8694C74.7014 35.0371 74.6343 35.1961 74.5229 35.3221C74.4115 35.4481 74.2619 35.5341 74.097 35.5671C74.048 35.5769 73.9981 35.5818 73.9481 35.5818C73.9426 35.5818 73.9372 35.5818 73.9317 35.5817Z" fill="#EC770E"/>
<path d="M60.1445 15.6308C60.109 15.7103 60.0672 15.7868 60.0196 15.8598L63.0815 23.0392L64.9635 23.2701L64.9863 26.156L61.6148 26.0711C61.3425 26.0642 61.0797 25.9692 60.8659 25.8002C60.6521 25.6313 60.4989 25.3976 60.4293 25.1342L58.1598 16.5493C57.8383 16.4534 57.5536 16.2619 57.3437 16.0003C57.1337 15.7386 57.0083 15.4193 56.9842 15.0846C56.9602 14.75 57.0386 14.416 57.209 14.127C57.3794 13.838 57.6337 13.6078 57.9382 13.4669C58.2426 13.326 58.5828 13.2811 58.9134 13.3382C59.244 13.3953 59.5493 13.5518 59.7888 13.7867C60.0284 14.0216 60.1907 14.3239 60.2542 14.6533C60.3178 14.9827 60.2795 15.3236 60.1445 15.6308Z" fill="#FFB6B6"/>
<path d="M63.3902 22.7834C63.4663 22.7159 63.5562 22.6656 63.6536 22.636C63.7509 22.6064 63.8535 22.5981 63.9544 22.6118L67.4768 23.0887C67.9975 23.0819 68.4997 23.2819 68.8731 23.6448C69.2466 24.0077 69.4609 24.5039 69.469 25.0245C69.4772 25.5452 69.2786 26.0479 68.9167 26.4223C68.5548 26.7967 68.0592 27.0124 67.5385 27.022L64.0179 27.5895C63.9174 27.6057 63.8146 27.6 63.7165 27.5729C63.6184 27.5458 63.5273 27.4979 63.4494 27.4324C63.3715 27.3669 63.3087 27.2854 63.2651 27.1934C63.2216 27.1014 63.1984 27.0011 63.1971 26.8993L63.1514 23.3227C63.1501 23.2209 63.1707 23.12 63.2119 23.027C63.2531 22.9339 63.3139 22.8508 63.3902 22.7834Z" fill="#EC770E"/>
<path d="M73.3642 30.1897C73.2741 30.1423 73.1953 30.0761 73.1332 29.9954C73.0711 29.9148 73.027 29.8218 73.0042 29.7226L72.2041 26.2592C72.0137 25.7746 72.0232 25.2343 72.2306 24.7567C72.4379 24.2791 72.8261 23.9032 73.3102 23.7114C73.7943 23.5196 74.3346 23.5275 74.8128 23.7335C75.291 23.9395 75.668 24.3266 75.8612 24.8101L77.6375 27.9024C77.6882 27.9906 77.7193 28.0888 77.7286 28.1901C77.738 28.2914 77.7253 28.3936 77.6916 28.4896C77.6579 28.5857 77.6039 28.6733 77.5333 28.7466C77.4627 28.8199 77.3771 28.8771 77.2824 28.9143L73.9531 30.2222C73.8584 30.2595 73.7567 30.2758 73.6551 30.2702C73.5535 30.2646 73.4542 30.2371 73.3642 30.1897Z" fill="#EC770E"/>
<path d="M73.222 20.7448C74.9769 19.7854 75.6219 17.5851 74.6625 15.8301C73.7032 14.0752 71.5029 13.4302 69.7479 14.3896C67.993 15.3489 67.348 17.5492 68.3073 19.3042C69.2667 21.0591 71.467 21.7041 73.222 20.7448Z" fill="#FFB6B6"/>
<path d="M68.9937 16.1114C68.2168 16.107 67.4398 16.1026 66.6628 16.0982C66.6076 15.5687 66.8432 15.0419 67.1866 14.635C67.53 14.2282 67.9747 13.9218 68.4137 13.6206C68.8594 13.3147 69.3211 13.0019 69.8509 12.895C70.295 12.8055 70.754 12.8676 71.2026 12.93C71.7976 13.0127 72.3926 13.0955 72.9876 13.1782C73.6407 13.269 74.324 13.3717 74.8544 13.7634C75.5718 14.2931 75.3884 15.5157 76.0767 16.0826C78.1555 17.7947 77.3138 19.2899 77.3526 20.8505C74.8405 21.114 72.3284 21.3775 69.8163 21.641C69.5436 21.6879 69.2644 21.6798 68.9949 21.6171C68.7311 21.5365 68.4892 21.3181 68.4697 21.0429C68.448 20.7355 68.6919 20.4839 68.8899 20.2479C69.3622 19.6626 69.6457 18.9477 69.7029 18.1978C69.7601 17.4479 69.5883 16.6983 69.2102 16.0481L68.9937 16.1114Z" fill="#2F2E41"/>
<path d="M42.0428 20.913C42.0282 20.8807 42.0136 20.8484 41.999 20.8159C42.0046 20.8161 42.0102 20.8169 42.0158 20.817L42.0428 20.913Z" fill="#2F2E41"/>
<path d="M39.397 14.3814C39.5597 14.2278 39.7713 14.1363 39.9946 14.123C40.2163 14.1301 40.441 14.3303 40.3951 14.5473C40.8022 13.8264 41.4503 13.272 42.2254 12.9813C43.0006 12.6907 43.8534 12.6823 44.6341 12.9578C45.185 13.1521 45.7252 13.5409 45.8517 14.1112C45.8641 14.261 45.9087 14.4062 45.9826 14.537C46.0467 14.607 46.1298 14.6566 46.2217 14.6799C46.3136 14.7032 46.4103 14.6991 46.4999 14.6681L46.5054 14.6665C46.536 14.656 46.5692 14.655 46.6004 14.6635C46.6317 14.6721 46.6597 14.6898 46.6807 14.7144C46.7018 14.7391 46.715 14.7695 46.7186 14.8017C46.7223 14.8339 46.7161 14.8664 46.7011 14.8951L46.5452 15.1858C46.7417 15.2296 46.9458 15.2253 47.1403 15.1732C47.1726 15.1647 47.2067 15.1664 47.238 15.1781C47.2693 15.1898 47.2962 15.2109 47.315 15.2385C47.3338 15.2661 47.3436 15.2988 47.3431 15.3322C47.3426 15.3656 47.3318 15.398 47.3121 15.425C47.0531 15.7794 46.7149 16.0684 46.3245 16.2691C45.934 16.4698 45.5022 16.5766 45.0632 16.5809C44.4404 16.5772 43.8112 16.3625 43.2051 16.5057C42.9706 16.5611 42.7515 16.6683 42.5638 16.8195C42.3762 16.9706 42.2248 17.1618 42.1207 17.3791C42.0165 17.5964 41.9624 17.8342 41.9622 18.0752C41.962 18.3161 42.0158 18.554 42.1195 18.7715C41.9333 18.5678 41.5734 18.616 41.3829 18.8157C41.2952 18.9226 41.2303 19.0464 41.1924 19.1794C41.1545 19.3123 41.1442 19.4517 41.1623 19.5888C41.2131 20.0087 41.3378 20.4162 41.5305 20.7927C40.7941 20.7701 40.0823 20.5219 39.4913 20.0818C38.9004 19.6417 38.4588 19.0308 38.2261 18.3317C37.9935 17.6325 37.981 16.8788 38.1904 16.1724C38.3998 15.4659 38.8209 14.8408 39.397 14.3814Z" fill="#2F2E41"/>
<path d="M107.5 80.5H0.20976C0.170406 80.4999 0.132703 80.4841 0.104916 80.4563C0.0771285 80.4284 0.0615234 80.3907 0.0615234 80.3513C0.0615234 80.3119 0.0771285 80.2742 0.104916 80.2463C0.132703 80.2185 0.170406 80.2028 0.20976 80.2026H107.5C107.519 80.2026 107.539 80.2064 107.557 80.2138C107.575 80.2213 107.591 80.2322 107.605 80.246C107.619 80.2598 107.63 80.2762 107.638 80.2943C107.645 80.3124 107.649 80.3317 107.649 80.3513C107.649 80.3709 107.645 80.3902 107.638 80.4083C107.63 80.4264 107.619 80.4428 107.605 80.4566C107.591 80.4704 107.575 80.4813 107.557 80.4888C107.539 80.4962 107.519 80.5 107.5 80.5Z" fill="#CCCCCC"/>
<path d="M25.8219 1.98211C22.7358 1.56497 19.2125 3.23303 18.4126 6.24272C18.211 5.7076 17.8446 5.25041 17.3661 4.93721C16.8877 4.624 16.3221 4.471 15.751 4.50031C15.1799 4.52961 14.6329 4.7397 14.1891 5.10023C13.7452 5.46076 13.4275 5.95306 13.2817 6.50601L13.6351 6.75906C20.2485 8.18922 27.0944 8.15827 33.6946 6.66836C31.548 4.4123 28.908 2.39925 25.8219 1.98211Z" fill="#F0F0F0"/>
<path d="M12.587 10.4725C9.5009 10.0553 5.97761 11.7234 5.17774 14.7331C4.97617 14.198 4.60969 13.7408 4.13126 13.4276C3.65283 13.1144 3.08722 12.9614 2.51614 12.9907C1.94506 13.02 1.39808 13.2301 0.954226 13.5906C0.510369 13.9511 0.192618 14.4434 0.046875 14.9964L0.400188 15.2494C7.01362 16.6796 13.8596 16.6486 20.4598 15.1587C18.3131 12.9027 15.6731 10.8896 12.587 10.4725Z" fill="#F0F0F0"/>
</g>
<defs>
<clipPath id="clip0_386_1720">
<rect width="111.906" height="80" fill="white" transform="translate(0.046875 0.5)"/>
</clipPath>
</defs>
</svg>
