<svg width="38" height="76" viewBox="0 0 38 76" fill="none" xmlns="http://www.w3.org/2000/svg">
<path fill-rule="evenodd" clip-rule="evenodd" d="M0.328269 74.5929C0.34072 74.3737 0.844043 73.5901 1.43049 72.8444C6.11763 66.9039 8.02965 63.4019 8.87032 59.2355C9.23543 57.4549 9.38797 57.1317 9.98767 57.0237C10.7404 56.8775 11.1553 57.4031 11.2674 58.6134C11.4203 60.4338 11.3034 63.2379 10.978 65.4035L10.6403 67.5014L12.1053 66.2146C23.3258 56.4142 31.9189 40.5071 34.4441 24.8659C35.7038 17.1252 35.033 11.024 32.0886 3.39438C31.4841 1.84968 31.0587 0.442229 31.1305 0.269396C31.2244 0.043654 31.3865 0.0322895 31.8075 0.213321C33.9912 1.15233 36.6769 9.16139 37.0857 15.8442C37.3611 20.6548 36.428 26.9019 34.3666 33.9507C33.4503 37.1055 29.928 45.4845 28.256 48.4577C23.4931 56.9144 18.2767 63.4631 12.4282 68.291C11.7092 68.88 11.092 69.4087 11.0626 69.4792C11.0414 69.5304 11.3558 69.5845 11.7728 69.5809C13.9005 69.5582 15.7554 70.1916 17.5754 71.5251C18.8932 72.4992 19.4331 73.486 18.9601 74.0996C18.5817 74.6313 17.9862 74.6808 15.6658 74.3566C13.1491 74.0291 10.2161 73.8489 8.80596 73.9557C7.74616 74.0301 6.99171 74.1755 2.7364 75.0795C1.08572 75.43 0.265744 75.2624 0.325833 74.5939L0.328269 74.5929Z" fill="black"/>
</svg>
