<svg width="40" height="40" viewBox="0 0 40 40" fill="none" xmlns="http://www.w3.org/2000/svg">
<path d="M38.1818 0.909091C38.1818 1.41117 38.5888 1.81818 39.0909 1.81818C39.593 1.81818 40 1.41117 40 0.909091C40 0.407014 39.593 0 39.0909 0C38.5888 0 38.1818 0.407014 38.1818 0.909091Z" fill="#C7C7C7"/>
<path d="M32.7273 0.909091C32.7273 1.41117 33.1343 1.81818 33.6364 1.81818C34.1384 1.81818 34.5455 1.41117 34.5455 0.909091C34.5455 0.407014 34.1384 0 33.6364 0C33.1343 0 32.7273 0.407014 32.7273 0.909091Z" fill="#888888"/>
<path d="M27.2727 0.909091C27.2727 1.41117 27.6797 1.81818 28.1818 1.81818C28.6839 1.81818 29.0909 1.41117 29.0909 0.909091C29.0909 0.407014 28.6839 0 28.1818 0C27.6797 0 27.2727 0.407014 27.2727 0.909091Z" fill="#C7C7C7"/>
<path d="M21.8182 0.909091C21.8182 1.41117 22.2252 1.81818 22.7273 1.81818C23.2294 1.81818 23.6364 1.41117 23.6364 0.909091C23.6364 0.407014 23.2294 0 22.7273 0C22.2252 0 21.8182 0.407014 21.8182 0.909091Z" fill="#888888"/>
<path d="M16.3636 0.909091C16.3636 1.41117 16.7707 1.81818 17.2727 1.81818C17.7748 1.81818 18.1818 1.41117 18.1818 0.909091C18.1818 0.407014 17.7748 0 17.2727 0C16.7707 0 16.3636 0.407014 16.3636 0.909091Z" fill="#C7C7C7"/>
<path d="M10.9091 0.909091C10.9091 1.41117 11.3161 1.81818 11.8182 1.81818C12.3203 1.81818 12.7273 1.41117 12.7273 0.909091C12.7273 0.407014 12.3203 0 11.8182 0C11.3161 0 10.9091 0.407014 10.9091 0.909091Z" fill="#888888"/>
<path d="M5.45455 0.909091C5.45455 1.41117 5.86156 1.81818 6.36364 1.81818C6.86571 1.81818 7.27273 1.41117 7.27273 0.909091C7.27273 0.407014 6.86571 0 6.36364 0C5.86156 0 5.45455 0.407014 5.45455 0.909091Z" fill="#C7C7C7"/>
<path d="M0 0.909091C0 1.41117 0.407014 1.81818 0.909091 1.81818C1.41117 1.81818 1.81818 1.41117 1.81818 0.909091C1.81818 0.407014 1.41117 0 0.909091 0C0.407014 0 0 0.407014 0 0.909091Z" fill="#888888"/>
<path d="M38.1818 6.36364C38.1818 6.86571 38.5888 7.27273 39.0909 7.27273C39.593 7.27273 40 6.86571 40 6.36364C40 5.86156 39.593 5.45455 39.0909 5.45455C38.5888 5.45455 38.1818 5.86156 38.1818 6.36364Z" fill="#888888"/>
<path d="M32.7273 6.36364C32.7273 6.86571 33.1343 7.27273 33.6364 7.27273C34.1384 7.27273 34.5455 6.86571 34.5455 6.36364C34.5455 5.86156 34.1384 5.45455 33.6364 5.45455C33.1343 5.45455 32.7273 5.86156 32.7273 6.36364Z" fill="#888888"/>
<path d="M27.2727 6.36364C27.2727 6.86571 27.6797 7.27273 28.1818 7.27273C28.6839 7.27273 29.0909 6.86571 29.0909 6.36364C29.0909 5.86156 28.6839 5.45455 28.1818 5.45455C27.6797 5.45455 27.2727 5.86156 27.2727 6.36364Z" fill="#888888"/>
<path d="M21.8182 6.36364C21.8182 6.86571 22.2252 7.27273 22.7273 7.27273C23.2294 7.27273 23.6364 6.86571 23.6364 6.36364C23.6364 5.86156 23.2294 5.45455 22.7273 5.45455C22.2252 5.45455 21.8182 5.86156 21.8182 6.36364Z" fill="#888888"/>
<path d="M16.3636 6.36364C16.3636 6.86571 16.7707 7.27273 17.2727 7.27273C17.7748 7.27273 18.1818 6.86571 18.1818 6.36364C18.1818 5.86156 17.7748 5.45455 17.2727 5.45455C16.7707 5.45455 16.3636 5.86156 16.3636 6.36364Z" fill="#888888"/>
<path d="M10.9091 6.36364C10.9091 6.86571 11.3161 7.27273 11.8182 7.27273C12.3203 7.27273 12.7273 6.86571 12.7273 6.36364C12.7273 5.86156 12.3203 5.45455 11.8182 5.45455C11.3161 5.45455 10.9091 5.86156 10.9091 6.36364Z" fill="#888888"/>
<path d="M5.45455 6.36364C5.45455 6.86571 5.86156 7.27273 6.36364 7.27273C6.86571 7.27273 7.27273 6.86571 7.27273 6.36364C7.27273 5.86156 6.86571 5.45455 6.36364 5.45455C5.86156 5.45455 5.45455 5.86156 5.45455 6.36364Z" fill="#888888"/>
<path d="M38.1818 11.8182C38.1818 12.3203 38.5888 12.7273 39.0909 12.7273C39.593 12.7273 40 12.3203 40 11.8182C40 11.3161 39.593 10.9091 39.0909 10.9091C38.5888 10.9091 38.1818 11.3161 38.1818 11.8182Z" fill="#C7C7C7"/>
<path d="M32.7273 11.8182C32.7273 12.3203 33.1343 12.7273 33.6364 12.7273C34.1384 12.7273 34.5455 12.3203 34.5455 11.8182C34.5455 11.3161 34.1384 10.9091 33.6364 10.9091C33.1343 10.9091 32.7273 11.3161 32.7273 11.8182Z" fill="#888888"/>
<path d="M27.2727 11.8182C27.2727 12.3203 27.6797 12.7273 28.1818 12.7273C28.6839 12.7273 29.0909 12.3203 29.0909 11.8182C29.0909 11.3161 28.6839 10.9091 28.1818 10.9091C27.6797 10.9091 27.2727 11.3161 27.2727 11.8182Z" fill="#888888"/>
<path d="M21.8182 11.8182C21.8182 12.3203 22.2252 12.7273 22.7273 12.7273C23.2294 12.7273 23.6364 12.3203 23.6364 11.8182C23.6364 11.3161 23.2294 10.9091 22.7273 10.9091C22.2252 10.9091 21.8182 11.3161 21.8182 11.8182Z" fill="#888888"/>
<path d="M16.3636 11.8182C16.3636 12.3203 16.7707 12.7273 17.2727 12.7273C17.7748 12.7273 18.1818 12.3203 18.1818 11.8182C18.1818 11.3161 17.7748 10.9091 17.2727 10.9091C16.7707 10.9091 16.3636 11.3161 16.3636 11.8182Z" fill="#888888"/>
<path d="M10.9091 11.8182C10.9091 12.3203 11.3161 12.7273 11.8182 12.7273C12.3203 12.7273 12.7273 12.3203 12.7273 11.8182C12.7273 11.3161 12.3203 10.9091 11.8182 10.9091C11.3161 10.9091 10.9091 11.3161 10.9091 11.8182Z" fill="#888888"/>
<path d="M5.45455 11.8182C5.45455 12.3203 5.86156 12.7273 6.36364 12.7273C6.86571 12.7273 7.27273 12.3203 7.27273 11.8182C7.27273 11.3161 6.86571 10.9091 6.36364 10.9091C5.86156 10.9091 5.45455 11.3161 5.45455 11.8182Z" fill="#888888"/>
<path d="M38.1818 17.2727C38.1818 17.7748 38.5888 18.1818 39.0909 18.1818C39.593 18.1818 40 17.7748 40 17.2727C40 16.7707 39.593 16.3636 39.0909 16.3636C38.5888 16.3636 38.1818 16.7707 38.1818 17.2727Z" fill="#888888"/>
<path d="M32.7273 17.2727C32.7273 17.7748 33.1343 18.1818 33.6364 18.1818C34.1384 18.1818 34.5455 17.7748 34.5455 17.2727C34.5455 16.7707 34.1384 16.3636 33.6364 16.3636C33.1343 16.3636 32.7273 16.7707 32.7273 17.2727Z" fill="#C7C7C7"/>
<path d="M27.2727 17.2727C27.2727 17.7748 27.6797 18.1818 28.1818 18.1818C28.6839 18.1818 29.0909 17.7748 29.0909 17.2727C29.0909 16.7707 28.6839 16.3636 28.1818 16.3636C27.6797 16.3636 27.2727 16.7707 27.2727 17.2727Z" fill="#888888"/>
<path d="M21.8182 17.2727C21.8182 17.7748 22.2252 18.1818 22.7273 18.1818C23.2294 18.1818 23.6364 17.7748 23.6364 17.2727C23.6364 16.7707 23.2294 16.3636 22.7273 16.3636C22.2252 16.3636 21.8182 16.7707 21.8182 17.2727Z" fill="#C7C7C7"/>
<path d="M16.3636 17.2727C16.3636 17.7748 16.7707 18.1818 17.2727 18.1818C17.7748 18.1818 18.1818 17.7748 18.1818 17.2727C18.1818 16.7707 17.7748 16.3636 17.2727 16.3636C16.7707 16.3636 16.3636 16.7707 16.3636 17.2727Z" fill="#888888"/>
<path d="M10.9091 17.2727C10.9091 17.7748 11.3161 18.1818 11.8182 18.1818C12.3203 18.1818 12.7273 17.7748 12.7273 17.2727C12.7273 16.7707 12.3203 16.3636 11.8182 16.3636C11.3161 16.3636 10.9091 16.7707 10.9091 17.2727Z" fill="#C7C7C7"/>
<path d="M38.1818 22.7273C38.1818 23.2294 38.5888 23.6364 39.0909 23.6364C39.593 23.6364 40 23.2294 40 22.7273C40 22.2252 39.593 21.8182 39.0909 21.8182C38.5888 21.8182 38.1818 22.2252 38.1818 22.7273Z" fill="#C7C7C7"/>
<path d="M32.7273 22.7273C32.7273 23.2294 33.1343 23.6364 33.6364 23.6364C34.1384 23.6364 34.5455 23.2294 34.5455 22.7273C34.5455 22.2252 34.1384 21.8182 33.6364 21.8182C33.1343 21.8182 32.7273 22.2252 32.7273 22.7273Z" fill="#888888"/>
<path d="M27.2727 22.7273C27.2727 23.2294 27.6797 23.6364 28.1818 23.6364C28.6839 23.6364 29.0909 23.2294 29.0909 22.7273C29.0909 22.2252 28.6839 21.8182 28.1818 21.8182C27.6797 21.8182 27.2727 22.2252 27.2727 22.7273Z" fill="#888888"/>
<path d="M21.8182 22.7273C21.8182 23.2294 22.2252 23.6364 22.7273 23.6364C23.2294 23.6364 23.6364 23.2294 23.6364 22.7273C23.6364 22.2252 23.2294 21.8182 22.7273 21.8182C22.2252 21.8182 21.8182 22.2252 21.8182 22.7273Z" fill="#888888"/>
<path d="M16.3636 22.7273C16.3636 23.2294 16.7707 23.6364 17.2727 23.6364C17.7748 23.6364 18.1818 23.2294 18.1818 22.7273C18.1818 22.2252 17.7748 21.8182 17.2727 21.8182C16.7707 21.8182 16.3636 22.2252 16.3636 22.7273Z" fill="#888888"/>
<path d="M10.9091 22.7273C10.9091 23.2294 11.3161 23.6364 11.8182 23.6364C12.3203 23.6364 12.7273 23.2294 12.7273 22.7273C12.7273 22.2252 12.3203 21.8182 11.8182 21.8182C11.3161 21.8182 10.9091 22.2252 10.9091 22.7273Z" fill="#888888"/>
<path d="M38.1818 28.1818C38.1818 28.6839 38.5888 29.0909 39.0909 29.0909C39.593 29.0909 40 28.6839 40 28.1818C40 27.6797 39.593 27.2727 39.0909 27.2727C38.5888 27.2727 38.1818 27.6797 38.1818 28.1818Z" fill="#888888"/>
<path d="M32.7273 28.1818C32.7273 28.6839 33.1343 29.0909 33.6364 29.0909C34.1384 29.0909 34.5455 28.6839 34.5455 28.1818C34.5455 27.6797 34.1384 27.2727 33.6364 27.2727C33.1343 27.2727 32.7273 27.6797 32.7273 28.1818Z" fill="#C7C7C7"/>
<path d="M27.2727 28.1818C27.2727 28.6839 27.6797 29.0909 28.1818 29.0909C28.6839 29.0909 29.0909 28.6839 29.0909 28.1818C29.0909 27.6797 28.6839 27.2727 28.1818 27.2727C27.6797 27.2727 27.2727 27.6797 27.2727 28.1818Z" fill="#888888"/>
<path d="M21.8182 28.1818C21.8182 28.6839 22.2252 29.0909 22.7273 29.0909C23.2294 29.0909 23.6364 28.6839 23.6364 28.1818C23.6364 27.6797 23.2294 27.2727 22.7273 27.2727C22.2252 27.2727 21.8182 27.6797 21.8182 28.1818Z" fill="#888888"/>
<path d="M16.3636 28.1818C16.3636 28.6839 16.7707 29.0909 17.2727 29.0909C17.7748 29.0909 18.1818 28.6839 18.1818 28.1818C18.1818 27.6797 17.7748 27.2727 17.2727 27.2727C16.7707 27.2727 16.3636 27.6797 16.3636 28.1818Z" fill="#888888"/>
<path d="M38.1818 33.6364C38.1818 34.1384 38.5888 34.5455 39.0909 34.5455C39.593 34.5455 40 34.1384 40 33.6364C40 33.1343 39.593 32.7273 39.0909 32.7273C38.5888 32.7273 38.1818 33.1343 38.1818 33.6364Z" fill="#C7C7C7"/>
<path d="M32.7273 33.6364C32.7273 34.1384 33.1343 34.5455 33.6364 34.5455C34.1384 34.5455 34.5455 34.1384 34.5455 33.6364C34.5455 33.1343 34.1384 32.7273 33.6364 32.7273C33.1343 32.7273 32.7273 33.1343 32.7273 33.6364Z" fill="#888888"/>
<path d="M27.2727 33.6364C27.2727 34.1384 27.6797 34.5455 28.1818 34.5455C28.6839 34.5455 29.0909 34.1384 29.0909 33.6364C29.0909 33.1343 28.6839 32.7273 28.1818 32.7273C27.6797 32.7273 27.2727 33.1343 27.2727 33.6364Z" fill="#888888"/>
<path d="M21.8182 33.6364C21.8182 34.1384 22.2252 34.5455 22.7273 34.5455C23.2294 34.5455 23.6364 34.1384 23.6364 33.6364C23.6364 33.1343 23.2294 32.7273 22.7273 32.7273C22.2252 32.7273 21.8182 33.1343 21.8182 33.6364Z" fill="#888888"/>
<path d="M16.3636 33.6364C16.3636 34.1384 16.7707 34.5455 17.2727 34.5455C17.7748 34.5455 18.1818 34.1384 18.1818 33.6364C18.1818 33.1343 17.7748 32.7273 17.2727 32.7273C16.7707 32.7273 16.3636 33.1343 16.3636 33.6364Z" fill="#888888"/>
<path d="M38.1818 39.0909C38.1818 39.593 38.5888 40 39.0909 40C39.593 40 40 39.593 40 39.0909C40 38.5888 39.593 38.1818 39.0909 38.1818C38.5888 38.1818 38.1818 38.5888 38.1818 39.0909Z" fill="#C7C7C7"/>
<path d="M32.7273 39.0909C32.7273 39.593 33.1343 40 33.6364 40C34.1384 40 34.5455 39.593 34.5455 39.0909C34.5455 38.5888 34.1384 38.1818 33.6364 38.1818C33.1343 38.1818 32.7273 38.5888 32.7273 39.0909Z" fill="#C7C7C7"/>
<path d="M27.2727 39.0909C27.2727 39.593 27.6797 40 28.1818 40C28.6839 40 29.0909 39.593 29.0909 39.0909C29.0909 38.5888 28.6839 38.1818 28.1818 38.1818C27.6797 38.1818 27.2727 38.5888 27.2727 39.0909Z" fill="#888888"/>
<path d="M21.8182 39.0909C21.8182 39.593 22.2252 40 22.7273 40C23.2294 40 23.6364 39.593 23.6364 39.0909C23.6364 38.5888 23.2294 38.1818 22.7273 38.1818C22.2252 38.1818 21.8182 38.5888 21.8182 39.0909Z" fill="#C7C7C7"/>
</svg>
